<svg xmlns="http://www.w3.org/2000/svg" width="178.717" height="55" viewBox="0 0 178.717 55"><g data-name="Group 4750"><g data-name="Group 4350"><path d="M1.323 12.213c-7.1 20.026 26.587 40.564 29.306 42.183V9.63C24.308-2.262 6.87-3.438 1.323 12.213Z" fill="#19a680"/><path data-name="fullLogo" d="m30.971 55-.52-.309a103.026 103.026 0 0 1-18.4-14.241 47.541 47.541 0 0 1-9.839-13.282C-.249 21.84-.657 16.768.999 12.097A18.726 18.726 0 0 1 6.863 3.48a14.8 14.8 0 0 1 8.151-3.2 16.833 16.833 0 0 1 15.919 9.185l.041.075ZM1.322 12.213l.323.114c-1.594 4.5-1.194 9.394 1.19 14.554a46.871 46.871 0 0 0 9.7 13.083 104.26 104.26 0 0 0 17.75 13.823V9.713A16.141 16.141 0 0 0 15.064.966C8.935 1.42 4.045 5.56 1.646 12.325Z" fill="#fff"/><path data-name="fullLogo" d="M59.934 12.213C54.386-3.438 36.947-2.262 30.628 9.63v44.766c2.719-1.619 36.405-22.157 29.306-42.183Z" fill="#9bcc98"/><path data-name="fullLogo" d="M30.285 55V9.544l.04-.075A16.833 16.833 0 0 1 46.244.284a14.8 14.8 0 0 1 8.15 3.2 18.726 18.726 0 0 1 5.864 8.617c1.657 4.672 1.248 9.742-1.213 15.071a47.508 47.508 0 0 1-9.839 13.282 103.04 103.04 0 0 1-18.4 14.241Zm.687-45.287v44.07A104.265 104.265 0 0 0 48.721 39.96a46.871 46.871 0 0 0 9.7-13.083c2.384-5.16 2.784-10.056 1.19-14.554-2.4-6.765-7.289-10.9-13.417-11.359a16.141 16.141 0 0 0-15.222 8.749Z" fill="#fff"/></g><path data-name="fullLogo-3" d="M69.561 3.264V0H82.05v3.264h-4.479v11.871h-3.512V3.264Z" fill="#18a47f"/><path data-name="fullLogo-4" d="M92.662 5.392V0h3.536v15.135h-3.536V8.757h-5.217v6.381h-3.512V0h3.512v5.392Z" fill="#18a47f"/><path d="M108.047 5.838v2.993h-5.814v2.943h7.37v3.363H98.724V0h10.881v3.363h-7.372v2.475ZM82.224 20.728l-1.41 2.943a5.46 5.46 0 0 0-3.165-1.163c-2.571 0-4.056 1.929-4.056 4.4 0 2.5 1.459 4.4 4.056 4.4a5.313 5.313 0 0 0 3.165-1.185l1.41 2.967a8.047 8.047 0 0 1-4.872 1.608c-4.5 0-7.37-3.413-7.37-7.79s2.869-7.815 7.37-7.815a8.079 8.079 0 0 1 4.872 1.635ZM92.364 31.14v3.363h-8.012V19.368h3.537V31.14ZM98.43 34.503h-3.536V19.368h3.536ZM113.34 19.368h3.215v15.136h-3.512V24.363l-4.278 5.246-4.3-5.172v10.069h-3.512V19.368h3.215l4.6 5.366ZM127.886 19.368l4.5 15.136h-3.537l-1.088-3.363h-4.7l-1.088 3.363h-3.536l4.476-15.136Zm-4.006 8.6h3.069l-1.533-5.317ZM131.151 22.635v-3.264h12.486v3.264h-4.476v11.871h-3.511V22.635ZM154.846 25.204v2.993h-5.81v2.944h7.37v3.363h-10.883V19.368h10.881v3.367h-7.37v2.473ZM82.224 40.096l-1.41 2.943a5.46 5.46 0 0 0-3.165-1.163c-2.571 0-4.056 1.929-4.056 4.4 0 2.5 1.459 4.4 4.056 4.4a5.315 5.315 0 0 0 3.165-1.185l1.41 2.967a8.047 8.047 0 0 1-4.872 1.608c-4.5 0-7.37-3.413-7.37-7.79s2.869-7.814 7.37-7.814a8.08 8.08 0 0 1 4.872 1.634ZM97.188 46.352c0 4.3-2.571 7.766-7.122 7.766s-7.171-3.463-7.171-7.741c0-4.353 2.7-7.889 7.192-7.889 4.48 0 7.101 3.512 7.101 7.864Zm-10.435.025c0 2.077.693 4.674 3.338 4.674s3.264-2.572 3.264-4.625c0-2.226-.742-4.823-3.289-4.823s-3.314 2.6-3.314 4.774ZM107.302 38.735l4.5 15.136h-3.537l-1.088-3.363h-4.7l-1.088 3.363h-3.537l4.476-15.136Zm-4.006 8.607h3.066l-1.533-5.317ZM121.701 50.507v3.363h-8.014V38.735h3.537v11.772ZM127.761 53.871h-3.536V38.735h3.536ZM129.642 41.999v-3.264h12.489v3.264h-4.475V53.87h-3.512V41.999ZM147.551 53.871h-3.534V38.735h3.537ZM164.146 46.352c0 4.3-2.571 7.766-7.122 7.766s-7.172-3.463-7.172-7.741c0-4.353 2.7-7.889 7.192-7.889 4.481 0 7.102 3.512 7.102 7.864Zm-10.436.025c0 2.077.693 4.674 3.339 4.674s3.264-2.572 3.264-4.625c0-2.226-.742-4.823-3.289-4.823s-3.314 2.6-3.314 4.774ZM175.18 47.54v-8.8h3.538v15.136h-3.561l-5.194-8.582v8.582h-3.512V38.735h3.532Z" fill="#18a47f"/></g></svg>