<svg width="152" height="187" viewBox="0 0 152 187" fill="none" xmlns="http://www.w3.org/2000/svg">
<g opacity="0.92">
<circle cx="75.8566" cy="159.781" r="12.9406" fill="white"/>
<path d="M77.35 183.505C76.6975 184.674 75.0154 184.674 74.3629 183.505L64.2763 165.432C63.64 164.291 64.4642 162.888 65.7698 162.888L85.9431 162.888C87.2487 162.888 88.0729 164.291 87.4366 165.432L77.35 183.505Z" fill="white"/>
</g>
<path d="M0.856445 5.84082C0.856445 3.07939 3.09502 0.84082 5.85645 0.84082H146.856C149.618 0.84082 151.856 3.0794 151.856 5.84082V116.841C151.856 119.602 149.618 121.841 146.856 121.841H5.85645C3.09502 121.841 0.856445 119.602 0.856445 116.841V5.84082Z" fill="white"/>
<path d="M13.9374 17.3938L13.2484 15.7038H13.0794L13.1834 17.4198V22.8408H11.8574V13.7668H13.4434L16.1474 19.2138L16.8494 20.9038H17.0184L16.9144 19.1878V13.7668H18.2404V22.8408H16.6414L13.9374 17.3938ZM25.9694 22.8408L25.2674 20.3318H22.2124L21.5104 22.8408H20.1584L22.8754 13.7668H24.6304L27.3604 22.8408H25.9694ZM24.0974 16.3408L23.8114 15.0148H23.6424L23.3564 16.3408L22.5504 19.2008H24.9424L24.0974 16.3408ZM35.5075 17.2508L35.5985 15.7038H35.4425L34.8185 17.2248L33.0505 20.9168L31.2955 17.2248L30.6715 15.7298H30.5155L30.6065 17.2508V22.8408H29.2805V13.7668H30.9055L32.3745 16.9388L33.0115 18.7328H33.1285L33.7655 16.9388L35.2215 13.7668H36.8335V22.8408H35.5075V17.2508ZM39.4901 22.8408V13.7668H44.7551V14.9758H40.8681V17.6278H44.3781V18.8238H40.8681V21.6318H44.7551V22.8408H39.4901Z" fill="#969EB0"/>
<path d="M17.2654 28.7668V35.4098C17.2654 35.7998 17.1961 36.1552 17.0574 36.4758C16.9274 36.7965 16.7368 37.0695 16.4854 37.2948C16.2428 37.5202 15.9481 37.6935 15.6014 37.8148C15.2548 37.9362 14.8691 37.9968 14.4444 37.9968C13.6471 37.9968 13.0101 37.7975 12.5334 37.3988C12.0654 37.0002 11.7621 36.4498 11.6234 35.7478L13.0014 35.4618C13.0794 35.8345 13.2268 36.1465 13.4434 36.3978C13.6601 36.6492 13.9981 36.7748 14.4574 36.7748C14.8821 36.7748 15.2114 36.6492 15.4454 36.3978C15.6881 36.1378 15.8094 35.7435 15.8094 35.2148V29.9888H12.6504V28.7668H17.2654ZM25.6974 37.8408C25.29 37.8408 24.9824 37.7368 24.7744 37.5288C24.575 37.3208 24.4537 37.0478 24.4104 36.7098H24.3454C24.2154 37.1172 23.977 37.4335 23.6304 37.6588C23.2924 37.8842 22.859 37.9968 22.3304 37.9968C21.6457 37.9968 21.0997 37.8192 20.6924 37.4638C20.285 37.0998 20.0814 36.6015 20.0814 35.9688C20.0814 35.3188 20.3197 34.8248 20.7964 34.4868C21.2817 34.1402 22.0227 33.9668 23.0194 33.9668H24.3064V33.4468C24.3064 32.5368 23.8254 32.0818 22.8634 32.0818C22.43 32.0818 22.079 32.1685 21.8104 32.3418C21.5417 32.5065 21.3164 32.7275 21.1344 33.0048L20.2894 32.3158C20.48 31.9518 20.8007 31.6398 21.2514 31.3798C21.702 31.1112 22.2827 30.9768 22.9934 30.9768C23.8427 30.9768 24.51 31.1805 24.9954 31.5878C25.4807 31.9952 25.7234 32.5845 25.7234 33.3558V36.7228H26.5684V37.8408H25.6974ZM22.7334 36.9568C23.1927 36.9568 23.5697 36.8528 23.8644 36.6448C24.159 36.4368 24.3064 36.1682 24.3064 35.8388V34.8638H23.0454C22.0227 34.8638 21.5114 35.1715 21.5114 35.7868V36.0468C21.5114 36.3502 21.6197 36.5798 21.8364 36.7358C22.053 36.8832 22.352 36.9568 22.7334 36.9568ZM28.3183 37.8408V31.1328H29.5273V32.0038H29.5923C29.6963 31.7178 29.8436 31.4752 30.0343 31.2758C30.2336 31.0765 30.5153 30.9768 30.8793 30.9768C31.2346 30.9768 31.5076 31.0765 31.6983 31.2758C31.8976 31.4665 32.0233 31.7308 32.0753 32.0688H32.1273C32.2486 31.7655 32.4176 31.5098 32.6343 31.3018C32.851 31.0852 33.163 30.9768 33.5703 30.9768C34.0903 30.9768 34.45 31.1588 34.6493 31.5228C34.8573 31.8868 34.9613 32.4198 34.9613 33.1218V37.8408H33.7523V33.3038C33.7523 32.8358 33.696 32.5152 33.5833 32.3418C33.4706 32.1598 33.2886 32.0688 33.0373 32.0688C32.812 32.0688 32.6213 32.1468 32.4653 32.3028C32.318 32.4502 32.2443 32.6755 32.2443 32.9788V37.8408H31.0353V33.3038C31.0353 32.8358 30.979 32.5152 30.8663 32.3418C30.7623 32.1598 30.5846 32.0688 30.3333 32.0688C30.0993 32.0688 29.9043 32.1468 29.7483 32.3028C29.601 32.4502 29.5273 32.6755 29.5273 32.9788V37.8408H28.3183ZM40.2342 37.9968C39.7229 37.9968 39.2635 37.9145 38.8562 37.7498C38.4489 37.5852 38.1065 37.3512 37.8292 37.0478C37.5519 36.7445 37.3395 36.3805 37.1922 35.9558C37.0449 35.5225 36.9712 35.0372 36.9712 34.4998C36.9712 33.9625 37.0449 33.4772 37.1922 33.0438C37.3482 32.6105 37.5605 32.2422 37.8292 31.9388C38.1065 31.6268 38.4402 31.3885 38.8302 31.2238C39.2202 31.0592 39.6535 30.9768 40.1302 30.9768C40.5982 30.9768 41.0229 31.0592 41.4042 31.2238C41.7855 31.3798 42.1105 31.6052 42.3792 31.8998C42.6479 32.1945 42.8515 32.5455 42.9902 32.9528C43.1375 33.3602 43.2112 33.8108 43.2112 34.3048V34.8378H38.4012V35.0588C38.4012 35.5875 38.5659 36.0208 38.8952 36.3588C39.2245 36.6882 39.6795 36.8528 40.2602 36.8528C40.6935 36.8528 41.0619 36.7618 41.3652 36.5798C41.6772 36.3892 41.9285 36.1378 42.1192 35.8258L43.0032 36.6058C42.7779 36.9958 42.4312 37.3252 41.9632 37.5938C41.5039 37.8625 40.9275 37.9968 40.2342 37.9968ZM40.1302 32.0558C39.8789 32.0558 39.6449 32.0992 39.4282 32.1858C39.2202 32.2725 39.0382 32.3982 38.8822 32.5628C38.7349 32.7188 38.6179 32.9052 38.5312 33.1218C38.4445 33.3385 38.4012 33.5768 38.4012 33.8368V33.9278H41.7682V33.7978C41.7682 33.2692 41.6165 32.8488 41.3132 32.5368C41.0185 32.2162 40.6242 32.0558 40.1302 32.0558ZM48.5491 37.9968C47.8211 37.9968 47.1928 37.8798 46.6641 37.6458C46.1441 37.4118 45.7238 37.0998 45.4031 36.7098L46.2741 35.9298C46.5688 36.2505 46.8981 36.4975 47.2621 36.6708C47.6348 36.8355 48.0725 36.9178 48.5751 36.9178C49.0345 36.9178 49.4028 36.8398 49.6801 36.6838C49.9661 36.5278 50.1091 36.2852 50.1091 35.9558C50.1091 35.8172 50.0831 35.7002 50.0311 35.6048C49.9791 35.5095 49.9055 35.4315 49.8101 35.3708C49.7148 35.3102 49.6021 35.2625 49.4721 35.2278C49.3508 35.1932 49.2208 35.1672 49.0821 35.1498L48.0161 34.9808C47.7561 34.9462 47.4918 34.8898 47.2231 34.8118C46.9545 34.7338 46.7118 34.6255 46.4951 34.4868C46.2871 34.3395 46.1138 34.1532 45.9751 33.9278C45.8451 33.7025 45.7801 33.4165 45.7801 33.0698C45.7801 32.3852 46.0401 31.8652 46.5601 31.5098C47.0888 31.1545 47.7821 30.9768 48.6401 30.9768C49.2641 30.9768 49.8015 31.0722 50.2521 31.2628C50.7115 31.4448 51.0928 31.7005 51.3961 32.0298L50.6031 32.8618C50.4298 32.6625 50.1828 32.4805 49.8621 32.3158C49.5415 32.1425 49.1168 32.0558 48.5881 32.0558C47.6435 32.0558 47.1711 32.3548 47.1711 32.9528C47.1711 33.2388 47.2708 33.4382 47.4701 33.5508C47.6781 33.6548 47.9208 33.7242 48.1981 33.7588L49.2641 33.9278C49.5328 33.9712 49.7971 34.0275 50.0571 34.0968C50.3258 34.1662 50.5641 34.2745 50.7721 34.4218C50.9888 34.5605 51.1621 34.7425 51.2921 34.9678C51.4308 35.1932 51.5001 35.4792 51.5001 35.8258C51.5001 36.5018 51.2358 37.0348 50.7071 37.4248C50.1871 37.8062 49.4678 37.9968 48.5491 37.9968ZM62.605 28.7668H65.738C66.5613 28.7668 67.1983 28.9792 67.649 29.4038C68.1083 29.8285 68.338 30.4092 68.338 31.1458C68.338 31.6745 68.208 32.0948 67.948 32.4068C67.688 32.7188 67.337 32.9398 66.895 33.0698V33.1348C67.4236 33.2562 67.8483 33.4902 68.169 33.8368C68.4896 34.1748 68.65 34.6558 68.65 35.2798C68.65 35.6525 68.5893 35.9948 68.468 36.3068C68.3466 36.6188 68.1733 36.8918 67.948 37.1258C67.7226 37.3512 67.4496 37.5288 67.129 37.6588C66.817 37.7802 66.4703 37.8408 66.089 37.8408H62.605V28.7668ZM65.647 36.7228C66.1323 36.7228 66.505 36.6232 66.765 36.4238C67.025 36.2245 67.155 35.9038 67.155 35.4618V34.9938C67.155 34.5518 67.025 34.2312 66.765 34.0318C66.505 33.8325 66.1323 33.7328 65.647 33.7328H64.035V36.7228H65.647ZM65.439 32.6668C65.8983 32.6668 66.245 32.5802 66.479 32.4068C66.7216 32.2248 66.843 31.9258 66.843 31.5098V31.0418C66.843 30.6258 66.7216 30.3312 66.479 30.1578C66.245 29.9758 65.8983 29.8848 65.439 29.8848H64.035V32.6668H65.439ZM74.0139 37.9968C73.5026 37.9968 73.0432 37.9145 72.6359 37.7498C72.2286 37.5852 71.8862 37.3512 71.6089 37.0478C71.3316 36.7445 71.1192 36.3805 70.9719 35.9558C70.8246 35.5225 70.7509 35.0372 70.7509 34.4998C70.7509 33.9625 70.8246 33.4772 70.9719 33.0438C71.1279 32.6105 71.3402 32.2422 71.6089 31.9388C71.8862 31.6268 72.2199 31.3885 72.6099 31.2238C72.9999 31.0592 73.4332 30.9768 73.9099 30.9768C74.3779 30.9768 74.8026 31.0592 75.1839 31.2238C75.5652 31.3798 75.8902 31.6052 76.1589 31.8998C76.4276 32.1945 76.6312 32.5455 76.7699 32.9528C76.9172 33.3602 76.9909 33.8108 76.9909 34.3048V34.8378H72.1809V35.0588C72.1809 35.5875 72.3456 36.0208 72.6749 36.3588C73.0042 36.6882 73.4592 36.8528 74.0399 36.8528C74.4732 36.8528 74.8416 36.7618 75.1449 36.5798C75.4569 36.3892 75.7082 36.1378 75.8989 35.8258L76.7829 36.6058C76.5576 36.9958 76.2109 37.3252 75.7429 37.5938C75.2836 37.8625 74.7072 37.9968 74.0139 37.9968ZM73.9099 32.0558C73.6586 32.0558 73.4246 32.0992 73.2079 32.1858C72.9999 32.2725 72.8179 32.3982 72.6619 32.5628C72.5146 32.7188 72.3976 32.9052 72.3109 33.1218C72.2242 33.3385 72.1809 33.5768 72.1809 33.8368V33.9278H75.5479V33.7978C75.5479 33.2692 75.3962 32.8488 75.0929 32.5368C74.7982 32.2162 74.4039 32.0558 73.9099 32.0558ZM84.8118 37.8408C84.4045 37.8408 84.0968 37.7368 83.8888 37.5288C83.6895 37.3208 83.5682 37.0478 83.5248 36.7098H83.4598C83.3298 37.1172 83.0915 37.4335 82.7448 37.6588C82.4068 37.8842 81.9735 37.9968 81.4448 37.9968C80.7602 37.9968 80.2142 37.8192 79.8068 37.4638C79.3995 37.0998 79.1958 36.6015 79.1958 35.9688C79.1958 35.3188 79.4342 34.8248 79.9108 34.4868C80.3962 34.1402 81.1372 33.9668 82.1338 33.9668H83.4208V33.4468C83.4208 32.5368 82.9398 32.0818 81.9778 32.0818C81.5445 32.0818 81.1935 32.1685 80.9248 32.3418C80.6562 32.5065 80.4308 32.7275 80.2488 33.0048L79.4038 32.3158C79.5945 31.9518 79.9152 31.6398 80.3658 31.3798C80.8165 31.1112 81.3972 30.9768 82.1078 30.9768C82.9572 30.9768 83.6245 31.1805 84.1098 31.5878C84.5952 31.9952 84.8378 32.5845 84.8378 33.3558V36.7228H85.6828V37.8408H84.8118ZM81.8478 36.9568C82.3072 36.9568 82.6842 36.8528 82.9788 36.6448C83.2735 36.4368 83.4208 36.1682 83.4208 35.8388V34.8638H82.1598C81.1372 34.8638 80.6258 35.1715 80.6258 35.7868V36.0468C80.6258 36.3502 80.7342 36.5798 80.9508 36.7358C81.1675 36.8832 81.4665 36.9568 81.8478 36.9568ZM91.1637 37.8408C90.5744 37.8408 90.1411 37.6848 89.8637 37.3728C89.5864 37.0522 89.4477 36.6405 89.4477 36.1378V32.2768H87.3807V31.1328H88.8497C89.1011 31.1328 89.2787 31.0852 89.3827 30.9898C89.4867 30.8858 89.5387 30.7038 89.5387 30.4438V28.7668H90.8647V31.1328H93.7247V32.2768H90.8647V36.6968H93.7247V37.8408H91.1637ZM99.6087 37.8408C99.0193 37.8408 98.586 37.6848 98.3087 37.3728C98.0313 37.0522 97.8927 36.6405 97.8927 36.1378V32.2768H95.8257V31.1328H97.2947C97.546 31.1328 97.7237 31.0852 97.8277 30.9898C97.9317 30.8858 97.9837 30.7038 97.9837 30.4438V28.7668H99.3097V31.1328H102.17V32.2768H99.3097V36.6968H102.17V37.8408H99.6087ZM108.067 29.9108C107.703 29.9108 107.447 29.8372 107.3 29.6898C107.161 29.5425 107.092 29.3605 107.092 29.1438V28.8708C107.092 28.6542 107.161 28.4722 107.3 28.3248C107.447 28.1775 107.698 28.1038 108.054 28.1038C108.418 28.1038 108.669 28.1775 108.808 28.3248C108.955 28.4722 109.029 28.6542 109.029 28.8708V29.1438C109.029 29.3605 108.955 29.5425 108.808 29.6898C108.669 29.8372 108.422 29.9108 108.067 29.9108ZM105.064 36.6968H107.352V32.2768H105.064V31.1328H108.769V36.6968H110.914V37.8408H105.064V36.6968ZM116.239 37.9968C115.727 37.9968 115.268 37.9145 114.861 37.7498C114.453 37.5852 114.111 37.3512 113.834 37.0478C113.556 36.7445 113.344 36.3805 113.197 35.9558C113.049 35.5225 112.976 35.0372 112.976 34.4998C112.976 33.9625 113.049 33.4772 113.197 33.0438C113.353 32.6105 113.565 32.2422 113.834 31.9388C114.111 31.6268 114.445 31.3885 114.835 31.2238C115.225 31.0592 115.658 30.9768 116.135 30.9768C116.603 30.9768 117.027 31.0592 117.409 31.2238C117.79 31.3798 118.115 31.6052 118.384 31.8998C118.652 32.1945 118.856 32.5455 118.995 32.9528C119.142 33.3602 119.216 33.8108 119.216 34.3048V34.8378H114.406V35.0588C114.406 35.5875 114.57 36.0208 114.9 36.3588C115.229 36.6882 115.684 36.8528 116.265 36.8528C116.698 36.8528 117.066 36.7618 117.37 36.5798C117.682 36.3892 117.933 36.1378 118.124 35.8258L119.008 36.6058C118.782 36.9958 118.436 37.3252 117.968 37.5938C117.508 37.8625 116.932 37.9968 116.239 37.9968ZM116.135 32.0558C115.883 32.0558 115.649 32.0992 115.433 32.1858C115.225 32.2725 115.043 32.3982 114.887 32.5628C114.739 32.7188 114.622 32.9052 114.536 33.1218C114.449 33.3385 114.406 33.5768 114.406 33.8368V33.9278H117.773V33.7978C117.773 33.2692 117.621 32.8488 117.318 32.5368C117.023 32.2162 116.629 32.0558 116.135 32.0558Z" fill="#2A2E37"/>
<path d="M11.8574 63.8408V54.7668H15.4454C16.2254 54.7668 16.8104 55.0008 17.2004 55.4688C17.5991 55.9282 17.7984 56.5955 17.7984 57.4708C17.7984 58.3462 17.5991 59.0178 17.2004 59.4858C16.8104 59.9452 16.2254 60.1748 15.4454 60.1748H13.2354V63.8408H11.8574ZM13.2354 58.9528H15.3284C15.6578 58.9528 15.9048 58.8705 16.0694 58.7058C16.2428 58.5325 16.3294 58.2595 16.3294 57.8868V57.0548C16.3294 56.6822 16.2428 56.4135 16.0694 56.2488C15.9048 56.0755 15.6578 55.9888 15.3284 55.9888H13.2354V58.9528ZM23.0551 63.9968C22.5091 63.9968 22.0195 63.9102 21.5861 63.7368C21.1528 63.5548 20.7801 63.2732 20.4681 62.8918C20.1648 62.5105 19.9308 62.0252 19.7661 61.4358C19.6101 60.8378 19.5321 60.1272 19.5321 59.3038C19.5321 58.4805 19.6101 57.7742 19.7661 57.1848C19.9308 56.5868 20.1648 56.0972 20.4681 55.7158C20.7801 55.3345 21.1528 55.0572 21.5861 54.8838C22.0195 54.7018 22.5091 54.6108 23.0551 54.6108C23.6011 54.6108 24.0908 54.7018 24.5241 54.8838C24.9575 55.0572 25.3258 55.3345 25.6291 55.7158C25.9411 56.0972 26.1751 56.5868 26.3311 57.1848C26.4958 57.7742 26.5781 58.4805 26.5781 59.3038C26.5781 60.1272 26.4958 60.8378 26.3311 61.4358C26.1751 62.0252 25.9411 62.5105 25.6291 62.8918C25.3258 63.2732 24.9575 63.5548 24.5241 63.7368C24.0908 63.9102 23.6011 63.9968 23.0551 63.9968ZM23.0551 62.7748C23.7051 62.7748 24.2078 62.5668 24.5631 62.1508C24.9185 61.7262 25.0961 61.1412 25.0961 60.3958V58.2118C25.0961 57.4665 24.9185 56.8858 24.5631 56.4698C24.2078 56.0452 23.7051 55.8328 23.0551 55.8328C22.4051 55.8328 21.9025 56.0452 21.5471 56.4698C21.1918 56.8858 21.0141 57.4665 21.0141 58.2118V60.3958C21.0141 61.1412 21.1918 61.7262 21.5471 62.1508C21.9025 62.5668 22.4051 62.7748 23.0551 62.7748ZM31.3059 63.9968C30.6299 63.9968 30.0405 63.8712 29.5379 63.6198C29.0439 63.3598 28.6192 62.9872 28.2639 62.5018L29.2129 61.6308C29.4815 62.0035 29.7892 62.2895 30.1359 62.4888C30.4825 62.6882 30.8769 62.7878 31.3189 62.7878C32.3935 62.7878 32.9309 62.2938 32.9309 61.3058C32.9309 60.9072 32.8355 60.6038 32.6449 60.3958C32.4542 60.1792 32.1249 60.0145 31.6569 59.9018L30.9159 59.7458C30.1012 59.5638 29.4989 59.2735 29.1089 58.8748C28.7275 58.4675 28.5369 57.8998 28.5369 57.1718C28.5369 56.3312 28.7882 55.6942 29.2909 55.2608C29.8022 54.8275 30.5129 54.6108 31.4229 54.6108C32.0729 54.6108 32.6189 54.7235 33.0609 54.9488C33.5115 55.1655 33.9015 55.5078 34.2309 55.9758L33.2819 56.8078C33.0479 56.4785 32.7835 56.2315 32.4889 56.0668C32.2029 55.9022 31.8389 55.8198 31.3969 55.8198C30.9029 55.8198 30.5302 55.9238 30.2789 56.1318C30.0362 56.3312 29.9149 56.6648 29.9149 57.1328C29.9149 57.5142 30.0102 57.8045 30.2009 58.0038C30.4002 58.1945 30.7209 58.3418 31.1629 58.4458L31.9039 58.6148C32.3372 58.7102 32.7055 58.8315 33.0089 58.9788C33.3122 59.1175 33.5592 59.2908 33.7499 59.4988C33.9492 59.7068 34.0922 59.9538 34.1789 60.2398C34.2655 60.5172 34.3089 60.8422 34.3089 61.2148C34.3089 62.1248 34.0445 62.8182 33.5159 63.2948C32.9959 63.7628 32.2592 63.9968 31.3059 63.9968ZM39.4226 55.9758V63.8408H38.0446V55.9758H35.6396V54.7668H41.8276V55.9758H39.4226ZM46.5469 63.9968C46.0183 63.9968 45.5416 63.9102 45.1169 63.7368C44.7009 63.5548 44.3413 63.2732 44.0379 62.8918C43.7433 62.5105 43.5136 62.0252 43.3489 61.4358C43.1929 60.8378 43.1149 60.1272 43.1149 59.3038C43.1149 58.4805 43.1929 57.7742 43.3489 57.1848C43.5136 56.5868 43.7433 56.0972 44.0379 55.7158C44.3413 55.3345 44.7009 55.0572 45.1169 54.8838C45.5416 54.7018 46.0183 54.6108 46.5469 54.6108C47.3183 54.6108 47.9336 54.7798 48.3929 55.1178C48.8609 55.4472 49.2336 55.9455 49.5109 56.6128L48.3409 57.2628C48.1849 56.7515 47.9639 56.3832 47.6779 56.1578C47.4006 55.9325 47.0236 55.8198 46.5469 55.8198C45.9316 55.8198 45.4506 56.0322 45.1039 56.4568C44.7659 56.8815 44.5969 57.4665 44.5969 58.2118V60.3958C44.5969 61.1412 44.7659 61.7262 45.1039 62.1508C45.4506 62.5755 45.9316 62.7878 46.5469 62.7878C47.0323 62.7878 47.4223 62.6665 47.7169 62.4238C48.0203 62.1812 48.2543 61.7912 48.4189 61.2538L49.5629 61.9298C49.2769 62.5972 48.8956 63.1085 48.4189 63.4638C47.9423 63.8192 47.3183 63.9968 46.5469 63.9968ZM54.6258 63.9968C54.0798 63.9968 53.5902 63.9102 53.1568 63.7368C52.7235 63.5548 52.3508 63.2732 52.0388 62.8918C51.7355 62.5105 51.5015 62.0252 51.3368 61.4358C51.1808 60.8378 51.1028 60.1272 51.1028 59.3038C51.1028 58.4805 51.1808 57.7742 51.3368 57.1848C51.5015 56.5868 51.7355 56.0972 52.0388 55.7158C52.3508 55.3345 52.7235 55.0572 53.1568 54.8838C53.5902 54.7018 54.0798 54.6108 54.6258 54.6108C55.1718 54.6108 55.6615 54.7018 56.0948 54.8838C56.5282 55.0572 56.8965 55.3345 57.1998 55.7158C57.5118 56.0972 57.7458 56.5868 57.9018 57.1848C58.0665 57.7742 58.1488 58.4805 58.1488 59.3038C58.1488 60.1272 58.0665 60.8378 57.9018 61.4358C57.7458 62.0252 57.5118 62.5105 57.1998 62.8918C56.8965 63.2732 56.5282 63.5548 56.0948 63.7368C55.6615 63.9102 55.1718 63.9968 54.6258 63.9968ZM54.6258 62.7748C55.2758 62.7748 55.7785 62.5668 56.1338 62.1508C56.4892 61.7262 56.6668 61.1412 56.6668 60.3958V58.2118C56.6668 57.4665 56.4892 56.8858 56.1338 56.4698C55.7785 56.0452 55.2758 55.8328 54.6258 55.8328C53.9758 55.8328 53.4732 56.0452 53.1178 56.4698C52.7625 56.8858 52.5848 57.4665 52.5848 58.2118V60.3958C52.5848 61.1412 52.7625 61.7262 53.1178 62.1508C53.4732 62.5668 53.9758 62.7748 54.6258 62.7748ZM60.4323 54.7668H63.4223C63.9596 54.7668 64.4363 54.8535 64.8523 55.0268C65.2769 55.2002 65.6323 55.4732 65.9183 55.8458C66.2129 56.2098 66.4339 56.6778 66.5813 57.2498C66.7373 57.8218 66.8153 58.5065 66.8153 59.3038C66.8153 60.1012 66.7373 60.7858 66.5813 61.3578C66.4339 61.9298 66.2129 62.4022 65.9183 62.7748C65.6323 63.1388 65.2769 63.4075 64.8523 63.5808C64.4363 63.7542 63.9596 63.8408 63.4223 63.8408H60.4323V54.7668ZM63.4223 62.6318C64.0203 62.6318 64.4883 62.4412 64.8263 62.0598C65.1643 61.6698 65.3333 61.1022 65.3333 60.3568V58.2508C65.3333 57.5055 65.1643 56.9422 64.8263 56.5608C64.4883 56.1708 64.0203 55.9758 63.4223 55.9758H61.8103V62.6318H63.4223ZM69.1057 63.8408V54.7668H74.3707V55.9758H70.4837V58.6278H73.9937V59.8238H70.4837V62.6318H74.3707V63.8408H69.1057Z" fill="#969EB0"/>
<path d="M14.6784 80.9968C13.8898 80.9968 13.2268 80.8582 12.6894 80.5808C12.1521 80.3035 11.7101 79.9352 11.3634 79.4758L12.2994 78.5788C12.6461 78.9948 13.0144 79.3025 13.4044 79.5018C13.7944 79.6925 14.2364 79.7878 14.7304 79.7878C15.3024 79.7878 15.7401 79.6578 16.0434 79.3978C16.3554 79.1378 16.5114 78.7652 16.5114 78.2798C16.5114 77.8898 16.3988 77.5908 16.1734 77.3828C15.9481 77.1662 15.5624 77.0102 15.0164 76.9148L14.0284 76.7588C13.5951 76.6895 13.2311 76.5768 12.9364 76.4208C12.6418 76.2562 12.4034 76.0655 12.2214 75.8488C12.0394 75.6235 11.9051 75.3765 11.8184 75.1078C11.7404 74.8305 11.7014 74.5402 11.7014 74.2368C11.7014 73.3788 11.9788 72.7288 12.5334 72.2868C13.0881 71.8362 13.8508 71.6108 14.8214 71.6108C15.5408 71.6108 16.1518 71.7278 16.6544 71.9618C17.1658 72.1872 17.5774 72.5078 17.8894 72.9238L16.9794 73.8338C16.7281 73.5305 16.4291 73.2878 16.0824 73.1058C15.7444 72.9152 15.3241 72.8198 14.8214 72.8198C14.2841 72.8198 13.8724 72.9368 13.5864 73.1708C13.3091 73.3962 13.1704 73.7298 13.1704 74.1718C13.1704 74.5445 13.2788 74.8392 13.4954 75.0558C13.7208 75.2638 14.1151 75.4155 14.6784 75.5108L15.6404 75.6798C16.4551 75.8272 17.0488 76.1262 17.4214 76.5768C17.7941 77.0188 17.9804 77.5605 17.9804 78.2018C17.9804 78.6178 17.9068 78.9992 17.7594 79.3458C17.6208 79.6925 17.4084 79.9872 17.1224 80.2298C16.8451 80.4725 16.4984 80.6632 16.0824 80.8018C15.6751 80.9318 15.2071 80.9968 14.6784 80.9968ZM20.4194 80.8408V71.7668H26.1004V72.9888H21.8754V75.6278H25.9444V76.8498H21.8754V79.6188H26.1004V80.8408H20.4194ZM34.3893 73.0278H30.2683L30.0343 76.2518H30.1383C30.3463 75.8965 30.5976 75.6148 30.8923 75.4068C31.187 75.1902 31.59 75.0818 32.1013 75.0818C32.4913 75.0818 32.851 75.1468 33.1803 75.2768C33.5183 75.4068 33.8086 75.5932 34.0513 75.8358C34.3026 76.0785 34.4976 76.3775 34.6363 76.7328C34.7836 77.0795 34.8573 77.4738 34.8573 77.9158C34.8573 78.3665 34.7836 78.7825 34.6363 79.1638C34.489 79.5365 34.2766 79.8615 33.9993 80.1388C33.722 80.4075 33.3796 80.6198 32.9723 80.7758C32.565 80.9232 32.1013 80.9968 31.5813 80.9968C31.174 80.9968 30.81 80.9492 30.4893 80.8538C30.1773 80.7672 29.8956 80.6502 29.6443 80.5028C29.4016 80.3468 29.1893 80.1735 29.0073 79.9828C28.8253 79.7835 28.665 79.5798 28.5263 79.3718L29.5923 78.5398C29.705 78.7132 29.822 78.8778 29.9433 79.0338C30.0733 79.1812 30.2163 79.3112 30.3723 79.4238C30.5283 79.5365 30.706 79.6232 30.9053 79.6838C31.1133 79.7445 31.3473 79.7748 31.6073 79.7748C32.1706 79.7748 32.5996 79.6232 32.8943 79.3198C33.189 79.0078 33.3363 78.5875 33.3363 78.0588V77.9548C33.3363 77.4262 33.1846 77.0145 32.8813 76.7198C32.5866 76.4252 32.162 76.2778 31.6073 76.2778C31.2 76.2778 30.8793 76.3515 30.6453 76.4988C30.4113 76.6462 30.2076 76.8108 30.0343 76.9928L28.8253 76.8238L29.1633 71.7668H34.3893V73.0278ZM49.3421 80.8408V79.0728H45.0261V77.8248L48.8221 71.7668H50.7331V77.9288H52.0071V79.0728H50.7331V80.8408H49.3421ZM46.2611 77.9288H49.3421V73.1058H49.2641L46.2611 77.9288ZM54.1471 71.7668H56.8511C58.0124 71.7668 58.8704 72.1525 59.4251 72.9238C59.9884 73.6952 60.2701 74.8218 60.2701 76.3038C60.2701 77.7858 59.9884 78.9125 59.4251 79.6838C58.8704 80.4552 58.0124 80.8408 56.8511 80.8408H54.1471V71.7668ZM56.7601 79.6448C57.4274 79.6448 57.9214 79.4238 58.2421 78.9818C58.5714 78.5312 58.7361 77.8898 58.7361 77.0578V75.5498C58.7361 74.7178 58.5714 74.0808 58.2421 73.6388C57.9214 73.1882 57.4274 72.9628 56.7601 72.9628H55.5901V79.6448H56.7601ZM62.501 80.8408L61.851 71.7668H63.125L63.45 77.0448L63.593 79.3718H63.697L64.724 73.9638H66.167L67.194 79.3718H67.298L67.441 77.0448L67.779 71.7668H69.001L68.351 80.8408H66.401L65.478 75.5888H65.374L64.451 80.8408H62.501Z" fill="#2A2E37"/>
<path d="M67.0658 120.866C66.6694 120.093 66.817 119.153 67.4311 118.539L74.5592 111.41C75.3403 110.629 76.6066 110.629 77.3877 111.41L85.0534 119.076C85.6871 119.71 85.8219 120.688 85.3831 121.47L77.7966 134.982C77.0158 136.373 75.0011 136.335 74.2731 134.916L67.0658 120.866Z" fill="#DFE1E7"/>
<path d="M0.856445 95.8408H151.856V116.841C151.856 119.602 149.618 121.841 146.856 121.841H5.85645C3.09502 121.841 0.856445 119.602 0.856445 116.841V95.8408Z" fill="#DFE1E7"/>
<path d="M14.9244 113.985C13.8604 113.985 13.0324 113.625 12.4404 112.905C11.8484 112.177 11.5524 111.109 11.5524 109.701C11.5524 108.293 11.8484 107.213 12.4404 106.461C13.0324 105.701 13.8604 105.321 14.9244 105.321C15.6284 105.321 16.2164 105.481 16.6884 105.801C17.1684 106.121 17.5404 106.573 17.8044 107.157L16.9884 107.649C16.8204 107.217 16.5644 106.873 16.2204 106.617C15.8764 106.353 15.4444 106.221 14.9244 106.221C14.5644 106.221 14.2404 106.289 13.9524 106.425C13.6724 106.561 13.4324 106.757 13.2324 107.013C13.0404 107.261 12.8924 107.561 12.7884 107.913C12.6844 108.257 12.6324 108.645 12.6324 109.077V110.325C12.6324 111.189 12.8324 111.865 13.2324 112.353C13.6324 112.841 14.1964 113.085 14.9244 113.085C15.4604 113.085 15.9084 112.949 16.2684 112.677C16.6284 112.397 16.8924 112.029 17.0604 111.573L17.8644 112.077C17.6004 112.669 17.2204 113.137 16.7244 113.481C16.2284 113.817 15.6284 113.985 14.9244 113.985ZM23.8296 113.841C23.4696 113.841 23.2096 113.745 23.0496 113.553C22.8976 113.361 22.8016 113.121 22.7616 112.833H22.7016C22.5656 113.217 22.3416 113.505 22.0296 113.697C21.7176 113.889 21.3456 113.985 20.9136 113.985C20.2576 113.985 19.7456 113.817 19.3776 113.481C19.0176 113.145 18.8376 112.689 18.8376 112.113C18.8376 111.529 19.0496 111.081 19.4736 110.769C19.9056 110.457 20.5736 110.301 21.4776 110.301H22.7016V109.689C22.7016 109.249 22.5816 108.913 22.3416 108.681C22.1016 108.449 21.7336 108.333 21.2376 108.333C20.8616 108.333 20.5456 108.417 20.2896 108.585C20.0416 108.753 19.8336 108.977 19.6656 109.257L19.0896 108.717C19.2576 108.381 19.5256 108.097 19.8936 107.865C20.2616 107.625 20.7256 107.505 21.2856 107.505C22.0376 107.505 22.6216 107.689 23.0376 108.057C23.4536 108.425 23.6616 108.937 23.6616 109.593V113.001H24.3696V113.841H23.8296ZM21.0696 113.169C21.3096 113.169 21.5296 113.141 21.7296 113.085C21.9296 113.029 22.1016 112.949 22.2456 112.845C22.3896 112.741 22.5016 112.621 22.5816 112.485C22.6616 112.349 22.7016 112.201 22.7016 112.041V111.021H21.4296C20.8776 111.021 20.4736 111.101 20.2176 111.261C19.9696 111.421 19.8456 111.653 19.8456 111.957V112.209C19.8456 112.513 19.9536 112.749 20.1696 112.917C20.3936 113.085 20.6936 113.169 21.0696 113.169ZM26.7597 113.841C26.4237 113.841 26.1677 113.749 25.9917 113.565C25.8237 113.373 25.7397 113.133 25.7397 112.845V104.961H26.6997V113.001H27.6117V113.841H26.7597ZM29.9707 113.841C29.6347 113.841 29.3787 113.749 29.2027 113.565C29.0347 113.373 28.9507 113.133 28.9507 112.845V104.961H29.9107V113.001H30.8227V113.841H29.9707Z" fill="#4B5263"/>
<line x1="46.3564" y1="98.8408" x2="46.3564" y2="118.841" stroke="#C2C6D1"/>
<path d="M63.7924 106.353V113.841H62.7844V106.353H60.1204V105.465H66.4564V106.353H63.7924ZM69.2865 113.985C68.8625 113.985 68.4785 113.909 68.1345 113.757C67.7985 113.605 67.5065 113.389 67.2585 113.109C67.0185 112.821 66.8305 112.481 66.6945 112.089C66.5665 111.689 66.5025 111.241 66.5025 110.745C66.5025 110.257 66.5665 109.813 66.6945 109.413C66.8305 109.013 67.0185 108.673 67.2585 108.393C67.5065 108.105 67.7985 107.885 68.1345 107.733C68.4785 107.581 68.8625 107.505 69.2865 107.505C69.7025 107.505 70.0745 107.581 70.4025 107.733C70.7305 107.885 71.0105 108.097 71.2425 108.369C71.4745 108.633 71.6505 108.949 71.7705 109.317C71.8985 109.685 71.9625 110.089 71.9625 110.529V110.985H67.5105V111.273C67.5105 111.537 67.5505 111.785 67.6305 112.017C67.7185 112.241 67.8385 112.437 67.9905 112.605C68.1505 112.773 68.3425 112.905 68.5665 113.001C68.7985 113.097 69.0585 113.145 69.3465 113.145C69.7385 113.145 70.0785 113.053 70.3665 112.869C70.6625 112.685 70.8905 112.421 71.0505 112.077L71.7345 112.569C71.5345 112.993 71.2225 113.337 70.7985 113.601C70.3745 113.857 69.8705 113.985 69.2865 113.985ZM69.2865 108.309C69.0225 108.309 68.7825 108.357 68.5665 108.453C68.3505 108.541 68.1625 108.669 68.0025 108.837C67.8505 109.005 67.7305 109.205 67.6425 109.437C67.5545 109.661 67.5105 109.909 67.5105 110.181V110.265H70.9305V110.133C70.9305 109.581 70.7785 109.141 70.4745 108.813C70.1785 108.477 69.7825 108.309 69.2865 108.309ZM72.6358 113.841L74.9278 110.721L72.7318 107.649H73.8598L75.4318 109.953H75.4678L77.0998 107.649H78.1678L75.9838 110.649L78.2158 113.841H77.0878L75.4798 111.417H75.4438L73.7038 113.841H72.6358ZM80.8538 113.841C80.5178 113.841 80.2618 113.749 80.0858 113.565C79.9178 113.373 79.8338 113.125 79.8338 112.821V108.489H78.8138V107.649H79.3898C79.5978 107.649 79.7378 107.609 79.8098 107.529C79.8898 107.441 79.9298 107.293 79.9298 107.085V105.933H80.7938V107.649H82.1498V108.489H80.7938V113.001H82.0538V113.841H80.8538Z" fill="#4B5263"/>
<line x1="97.3564" y1="98.8408" x2="97.3564" y2="118.841" stroke="#C2C6D1"/>
<path d="M111.972 113.841V105.465H117.084V106.353H112.98V109.161H116.844V110.049H112.98V112.953H117.084V113.841H111.972ZM118.873 113.841V107.649H119.833V108.657H119.881C119.953 108.497 120.033 108.349 120.121 108.213C120.217 108.069 120.329 107.945 120.457 107.841C120.593 107.737 120.749 107.657 120.925 107.601C121.101 107.537 121.309 107.505 121.549 107.505C121.957 107.505 122.333 107.605 122.677 107.805C123.021 107.997 123.277 108.317 123.445 108.765H123.469C123.581 108.429 123.789 108.137 124.093 107.889C124.405 107.633 124.825 107.505 125.353 107.505C125.985 107.505 126.477 107.713 126.829 108.129C127.189 108.537 127.369 109.117 127.369 109.869V113.841H126.409V110.037C126.409 109.485 126.301 109.069 126.085 108.789C125.869 108.509 125.525 108.369 125.053 108.369C124.861 108.369 124.677 108.393 124.501 108.441C124.333 108.489 124.181 108.561 124.045 108.657C123.909 108.753 123.801 108.877 123.721 109.029C123.641 109.173 123.601 109.345 123.601 109.545V113.841H122.641V110.037C122.641 109.485 122.533 109.069 122.317 108.789C122.101 108.509 121.765 108.369 121.309 108.369C121.117 108.369 120.933 108.393 120.757 108.441C120.581 108.489 120.425 108.561 120.289 108.657C120.153 108.753 120.041 108.877 119.953 109.029C119.873 109.173 119.833 109.345 119.833 109.545V113.841H118.873ZM133.849 113.841C133.489 113.841 133.229 113.745 133.069 113.553C132.917 113.361 132.821 113.121 132.781 112.833H132.721C132.585 113.217 132.361 113.505 132.049 113.697C131.737 113.889 131.365 113.985 130.933 113.985C130.277 113.985 129.765 113.817 129.397 113.481C129.037 113.145 128.857 112.689 128.857 112.113C128.857 111.529 129.069 111.081 129.493 110.769C129.925 110.457 130.593 110.301 131.497 110.301H132.721V109.689C132.721 109.249 132.601 108.913 132.361 108.681C132.121 108.449 131.753 108.333 131.257 108.333C130.881 108.333 130.565 108.417 130.309 108.585C130.061 108.753 129.853 108.977 129.685 109.257L129.109 108.717C129.277 108.381 129.545 108.097 129.913 107.865C130.281 107.625 130.745 107.505 131.305 107.505C132.057 107.505 132.641 107.689 133.057 108.057C133.473 108.425 133.681 108.937 133.681 109.593V113.001H134.389V113.841H133.849ZM131.089 113.169C131.329 113.169 131.549 113.141 131.749 113.085C131.949 113.029 132.121 112.949 132.265 112.845C132.409 112.741 132.521 112.621 132.601 112.485C132.681 112.349 132.721 112.201 132.721 112.041V111.021H131.449C130.897 111.021 130.493 111.101 130.237 111.261C129.989 111.421 129.865 111.653 129.865 111.957V112.209C129.865 112.513 129.973 112.749 130.189 112.917C130.413 113.085 130.713 113.169 131.089 113.169ZM136.239 106.197C136.031 106.197 135.879 106.149 135.783 106.053C135.695 105.949 135.651 105.817 135.651 105.657V105.501C135.651 105.341 135.695 105.213 135.783 105.117C135.879 105.013 136.031 104.961 136.239 104.961C136.447 104.961 136.595 105.013 136.683 105.117C136.779 105.213 136.827 105.341 136.827 105.501V105.657C136.827 105.817 136.779 105.949 136.683 106.053C136.595 106.149 136.447 106.197 136.239 106.197ZM135.759 107.649H136.719V113.841H135.759V107.649ZM139.779 113.841C139.443 113.841 139.187 113.749 139.011 113.565C138.843 113.373 138.759 113.133 138.759 112.845V104.961H139.719V113.001H140.631V113.841H139.779Z" fill="#4B5263"/>
</svg>
