<svg width="334" height="334" viewBox="0 0 334 334" fill="none" xmlns="http://www.w3.org/2000/svg">
<g opacity="0.1" clip-path="url(#clip0_615_12660)">
<path d="M42.5 614.875C312.774 614.875 531.875 395.774 531.875 125.5C531.875 -144.774 312.774 -363.875 42.5 -363.875C-227.774 -363.875 -446.875 -144.774 -446.875 125.5C-446.875 395.774 -227.774 614.875 42.5 614.875Z" stroke="#052923" stroke-width="2" stroke-miterlimit="10"/>
<path d="M42.5 598C303.455 598 515 386.455 515 125.5C515 -135.455 303.455 -347 42.5 -347C-218.455 -347 -430 -135.455 -430 125.5C-430 386.455 -218.455 598 42.5 598Z" stroke="#052923" stroke-width="2" stroke-miterlimit="10"/>
<path d="M42.5 581.125C294.135 581.125 498.125 377.135 498.125 125.5C498.125 -126.135 294.135 -330.125 42.5 -330.125C-209.135 -330.125 -413.125 -126.135 -413.125 125.5C-413.125 377.135 -209.135 581.125 42.5 581.125Z" stroke="#052923" stroke-width="2" stroke-miterlimit="10"/>
<path d="M42.5 564.25C284.815 564.25 481.25 367.815 481.25 125.5C481.25 -116.815 284.815 -313.25 42.5 -313.25C-199.815 -313.25 -396.25 -116.815 -396.25 125.5C-396.25 367.815 -199.815 564.25 42.5 564.25Z" stroke="#052923" stroke-width="2" stroke-miterlimit="10"/>
<path d="M42.5 547.375C275.495 547.375 464.375 358.495 464.375 125.5C464.375 -107.495 275.495 -296.375 42.5 -296.375C-190.495 -296.375 -379.375 -107.495 -379.375 125.5C-379.375 358.495 -190.495 547.375 42.5 547.375Z" stroke="#052923" stroke-width="2" stroke-miterlimit="10"/>
<path d="M42.5 530.5C266.175 530.5 447.5 349.175 447.5 125.5C447.5 -98.1753 266.175 -279.5 42.5 -279.5C-181.175 -279.5 -362.5 -98.1753 -362.5 125.5C-362.5 349.175 -181.175 530.5 42.5 530.5Z" stroke="#052923" stroke-width="2" stroke-miterlimit="10"/>
<path d="M42.5 513.625C256.856 513.625 430.625 339.856 430.625 125.5C430.625 -88.8555 256.856 -262.625 42.5 -262.625C-171.856 -262.625 -345.625 -88.8555 -345.625 125.5C-345.625 339.856 -171.856 513.625 42.5 513.625Z" stroke="#052923" stroke-width="2" stroke-miterlimit="10"/>
<path d="M42.5 496.75C247.536 496.75 413.75 330.536 413.75 125.5C413.75 -79.5357 247.536 -245.75 42.5 -245.75C-162.536 -245.75 -328.75 -79.5357 -328.75 125.5C-328.75 330.536 -162.536 496.75 42.5 496.75Z" stroke="#052923" stroke-width="2" stroke-miterlimit="10"/>
<path d="M42.5 479.875C238.216 479.875 396.875 321.216 396.875 125.5C396.875 -70.2159 238.216 -228.875 42.5 -228.875C-153.216 -228.875 -311.875 -70.2159 -311.875 125.5C-311.875 321.216 -153.216 479.875 42.5 479.875Z" stroke="#052923" stroke-width="2" stroke-miterlimit="10"/>
<path d="M42.5 463C228.896 463 380 311.896 380 125.5C380 -60.8961 228.896 -212 42.5 -212C-143.896 -212 -295 -60.8961 -295 125.5C-295 311.896 -143.896 463 42.5 463Z" stroke="#052923" stroke-width="2" stroke-miterlimit="10"/>
<path d="M42.5 446.125C219.576 446.125 363.125 302.576 363.125 125.5C363.125 -51.5763 219.576 -195.125 42.5 -195.125C-134.576 -195.125 -278.125 -51.5763 -278.125 125.5C-278.125 302.576 -134.576 446.125 42.5 446.125Z" stroke="#052923" stroke-width="2" stroke-miterlimit="10"/>
<path d="M42.5 429.25C210.257 429.25 346.25 293.257 346.25 125.5C346.25 -42.2565 210.257 -178.25 42.5 -178.25C-125.256 -178.25 -261.25 -42.2565 -261.25 125.5C-261.25 293.257 -125.256 429.25 42.5 429.25Z" stroke="#052923" stroke-width="2" stroke-miterlimit="10"/>
<path d="M42.5 412.375C200.937 412.375 329.375 283.937 329.375 125.5C329.375 -32.9367 200.937 -161.375 42.5 -161.375C-115.937 -161.375 -244.375 -32.9367 -244.375 125.5C-244.375 283.937 -115.937 412.375 42.5 412.375Z" stroke="#052923" stroke-width="2" stroke-miterlimit="10"/>
<path d="M42.5 395.5C191.617 395.5 312.5 274.617 312.5 125.5C312.5 -23.6169 191.617 -144.5 42.5 -144.5C-106.617 -144.5 -227.5 -23.6169 -227.5 125.5C-227.5 274.617 -106.617 395.5 42.5 395.5Z" stroke="#052923" stroke-width="2" stroke-miterlimit="10"/>
<path d="M42.5 378.625C182.297 378.625 295.625 265.297 295.625 125.5C295.625 -14.2971 182.297 -127.625 42.5 -127.625C-97.2971 -127.625 -210.625 -14.2971 -210.625 125.5C-210.625 265.297 -97.2971 378.625 42.5 378.625Z" stroke="#052923" stroke-width="2" stroke-miterlimit="10"/>
<path d="M42.5 361.75C172.977 361.75 278.75 255.977 278.75 125.5C278.75 -4.97727 172.977 -110.75 42.5 -110.75C-87.9773 -110.75 -193.75 -4.97727 -193.75 125.5C-193.75 255.977 -87.9773 361.75 42.5 361.75Z" stroke="#052923" stroke-width="2" stroke-miterlimit="10"/>
<path d="M42.5 344.875C163.657 344.875 261.875 246.657 261.875 125.5C261.875 4.34254 163.657 -93.875 42.5 -93.875C-78.6575 -93.875 -176.875 4.34254 -176.875 125.5C-176.875 246.657 -78.6575 344.875 42.5 344.875Z" stroke="#052923" stroke-width="2" stroke-miterlimit="10"/>
<path d="M42.5 328C154.338 328 245 237.338 245 125.5C245 13.6623 154.338 -77 42.5 -77C-69.3377 -77 -160 13.6623 -160 125.5C-160 237.338 -69.3377 328 42.5 328Z" stroke="#052923" stroke-width="2" stroke-miterlimit="10"/>
<path d="M42.5 311.125C145.018 311.125 228.125 228.018 228.125 125.5C228.125 22.9821 145.018 -60.125 42.5 -60.125C-60.0179 -60.125 -143.125 22.9821 -143.125 125.5C-143.125 228.018 -60.0179 311.125 42.5 311.125Z" stroke="#052923" stroke-width="2" stroke-miterlimit="10"/>
<path d="M42.5 294.25C135.698 294.25 211.25 218.698 211.25 125.5C211.25 32.302 135.698 -43.25 42.5 -43.25C-50.698 -43.25 -126.25 32.302 -126.25 125.5C-126.25 218.698 -50.698 294.25 42.5 294.25Z" stroke="#052923" stroke-width="2" stroke-miterlimit="10"/>
<path d="M42.5 277.375C126.378 277.375 194.375 209.378 194.375 125.5C194.375 41.6218 126.378 -26.375 42.5 -26.375C-41.3782 -26.375 -109.375 41.6218 -109.375 125.5C-109.375 209.378 -41.3782 277.375 42.5 277.375Z" stroke="#052923" stroke-width="2" stroke-miterlimit="10"/>
<path d="M42.5 260.5C117.058 260.5 177.5 200.058 177.5 125.5C177.5 50.9416 117.058 -9.5 42.5 -9.5C-32.0584 -9.5 -92.5 50.9416 -92.5 125.5C-92.5 200.058 -32.0584 260.5 42.5 260.5Z" stroke="#052923" stroke-width="2" stroke-miterlimit="10"/>
<path d="M42.5 243.625C107.739 243.625 160.625 190.739 160.625 125.5C160.625 60.2614 107.739 7.375 42.5 7.375C-22.7386 7.375 -75.625 60.2614 -75.625 125.5C-75.625 190.739 -22.7386 243.625 42.5 243.625Z" stroke="#052923" stroke-width="2" stroke-miterlimit="10"/>
<path d="M42.5 226.75C98.4188 226.75 143.75 181.419 143.75 125.5C143.75 69.5812 98.4188 24.25 42.5 24.25C-13.4188 24.25 -58.75 69.5812 -58.75 125.5C-58.75 181.419 -13.4188 226.75 42.5 226.75Z" stroke="#052923" stroke-width="2" stroke-miterlimit="10"/>
<path d="M42.5 209.875C89.099 209.875 126.875 172.099 126.875 125.5C126.875 78.901 89.099 41.125 42.5 41.125C-4.09902 41.125 -41.875 78.901 -41.875 125.5C-41.875 172.099 -4.09902 209.875 42.5 209.875Z" stroke="#052923" stroke-width="2" stroke-miterlimit="10"/>
<path d="M42.5 193C79.7792 193 110 162.779 110 125.5C110 88.2208 79.7792 58 42.5 58C5.22078 58 -25 88.2208 -25 125.5C-25 162.779 5.22078 193 42.5 193Z" stroke="#052923" stroke-width="2" stroke-miterlimit="10"/>
<path d="M42.5 176.125C70.4594 176.125 93.125 153.459 93.125 125.5C93.125 97.5406 70.4594 74.875 42.5 74.875C14.5406 74.875 -8.125 97.5406 -8.125 125.5C-8.125 153.459 14.5406 176.125 42.5 176.125Z" stroke="#052923" stroke-width="2" stroke-miterlimit="10"/>
<path d="M42.5 159.25C61.1396 159.25 76.25 144.14 76.25 125.5C76.25 106.86 61.1396 91.75 42.5 91.75C23.8604 91.75 8.75 106.86 8.75 125.5C8.75 144.14 23.8604 159.25 42.5 159.25Z" stroke="#052923" stroke-width="2" stroke-miterlimit="10"/>
</g>
<defs>
<clipPath id="clip0_615_12660">
<rect width="675" height="675" fill="white" transform="translate(-295 -212)"/>
</clipPath>
</defs>
</svg>
