<svg width="227" height="73" viewBox="0 0 227 73" fill="none" xmlns="http://www.w3.org/2000/svg">
<path d="M85.1605 4.83359C85.0461 12.5939 84.9126 20.3736 84.7792 28.1339C84.6076 38.9753 84.436 49.7974 84.2644 60.6388C84.2071 63.9509 84.15 67.263 84.1118 70.5751C84.1118 71.1528 84.5694 71.3839 85.0461 71.1528C85.599 70.9025 85.9804 70.1707 85.9994 69.5738C86.1138 61.8134 86.2473 54.0338 86.3617 46.2735C86.5333 35.4321 86.7049 24.61 86.8765 13.7686C86.9337 10.4565 86.9719 7.14437 87.0291 3.83226C87.0481 3.25457 86.5715 3.02349 86.0948 3.25457C85.58 3.52416 85.1796 4.23664 85.1605 4.83359Z" fill="#093A41"/>
<path d="M17.9497 6.31641C11.1428 6.31641 4.33587 10.4565 1.11355 19.6611C-6.95179 42.6533 31.3347 66.2425 34.4427 68.1104V16.6956C30.9343 10.0522 24.4325 6.31641 17.9497 6.31641Z" fill="#18A47F"/>
<path d="M50.9168 6.31641C44.434 6.31641 37.9321 10.0522 34.4429 16.6956V68.1104C37.2457 66.435 68.8016 47.0053 68.8778 26.2853V26.1313C68.8778 23.9746 68.5156 21.8178 67.7529 19.6611C64.5115 10.4565 57.7237 6.31641 50.9168 6.31641Z" fill="#093A41"/>
<path d="M108.612 15.3859C107.144 15.3859 105.981 15.1356 105.104 14.6542C104.227 14.1535 103.597 13.4603 103.197 12.5552C102.797 11.6502 102.606 10.5525 102.606 9.30087V0H105.695V9.51269C105.695 10.6488 105.962 11.4768 106.515 11.9968C107.049 12.5167 107.754 12.7863 108.631 12.7863C109.203 12.7863 109.718 12.6707 110.156 12.4397C110.595 12.2086 110.938 11.862 111.205 11.3806C111.453 10.8992 111.587 10.2829 111.587 9.51269V0H114.656V9.39715C114.656 10.6296 114.466 11.6887 114.065 12.5745C113.665 13.4795 113.036 14.1727 112.139 14.6542C111.224 15.1356 110.061 15.3859 108.612 15.3859Z" fill="#093A41"/>
<path d="M117.345 15.1741V0H120.339L127.203 10.0326V0H130.235V15.1741H127.508L120.377 4.73709V15.1741H117.345Z" fill="#093A41"/>
<path d="M133.266 15.1741V0H136.298V15.1741H133.266Z" fill="#093A41"/>
<path d="M142.591 15.1741V2.73442H138.053V0H150.065V2.73442H145.622V15.1741H142.591Z" fill="#093A41"/>
<path d="M151.838 15.1741V0H162.153L162.134 2.58036H154.87V6.25835H161.181V8.78094H154.85V12.5552L162.248 12.5745V15.1741H151.838Z" fill="#093A41"/>
<path d="M164.766 15.1741V0C164.842 0 165.052 0 165.395 0C165.738 0 166.158 0 166.634 0C167.111 0 167.588 0 168.064 0C168.541 0 168.941 0 169.246 0.0192565C171.077 0.0577694 172.545 0.385129 173.708 1.00134C174.852 1.61754 175.71 2.48408 176.244 3.5817C176.778 4.67932 177.045 5.98876 177.045 7.51002C177.045 9.08905 176.759 10.437 176.187 11.5924C175.615 12.7285 174.757 13.6143 173.594 14.2498C172.431 14.866 170.943 15.1741 169.151 15.1741H164.766ZM167.816 12.69H169.208C170.066 12.69 170.848 12.5167 171.553 12.1893C172.259 11.862 172.812 11.3035 173.25 10.5333C173.67 9.76302 173.88 8.76169 173.88 7.49076C173.88 6.31612 173.689 5.35329 173.327 4.60229C172.964 3.85129 172.411 3.33137 171.725 2.98475C171.039 2.63813 170.219 2.46483 169.265 2.46483H167.835V12.69H167.816Z" fill="#093A41"/>
<path d="M102.912 34.1214V18.9473H112.274L112.254 20.6418H104.876V25.6485H111.511V27.3238H104.876V34.1021H102.912V34.1214Z" fill="#093A41"/>
<path d="M120.606 34.3341C119.271 34.3341 118.108 34.026 117.136 33.429C116.163 32.8128 115.401 31.9463 114.886 30.7716C114.352 29.6162 114.085 28.2105 114.085 26.5737C114.085 24.9176 114.352 23.5119 114.886 22.3373C115.42 21.1819 116.182 20.2768 117.155 19.6606C118.127 19.0444 119.29 18.7363 120.606 18.7363C121.941 18.7363 123.085 19.0444 124.057 19.6606C125.029 20.2768 125.773 21.1626 126.307 22.318C126.841 23.4734 127.089 24.8984 127.089 26.5544C127.089 28.1912 126.822 29.597 126.307 30.7524C125.792 31.9077 125.029 32.7935 124.076 33.4097C123.085 34.026 121.941 34.3341 120.606 34.3341ZM120.606 32.6395C121.54 32.6395 122.322 32.4277 122.97 32.004C123.618 31.5804 124.114 30.9257 124.457 30.0206C124.801 29.1348 124.972 27.9794 124.972 26.593C124.972 25.1872 124.801 24.0126 124.457 23.1075C124.114 22.2025 123.618 21.5285 122.97 21.0856C122.322 20.6427 121.54 20.4309 120.606 20.4309C119.691 20.4309 118.909 20.6427 118.242 21.0856C117.574 21.5285 117.078 22.2025 116.716 23.1075C116.354 24.0126 116.182 25.168 116.182 26.5737C116.182 27.9602 116.354 29.1156 116.716 30.0014C117.078 30.9064 117.574 31.5611 118.242 31.9848C118.89 32.4277 119.691 32.6395 120.606 32.6395Z" fill="#093A41"/>
<path d="M129.873 34.1214V18.9473H135.688C136.775 18.9473 137.671 19.1206 138.396 19.4479C139.12 19.7753 139.673 20.2567 140.035 20.8729C140.398 21.4891 140.569 22.2401 140.569 23.0874C140.569 23.9154 140.417 24.5894 140.131 25.1478C139.845 25.687 139.482 26.1299 139.044 26.4573C138.605 26.7846 138.148 27.0542 137.671 27.2275L140.626 34.1021H138.586L135.841 27.5742H131.798V34.1021H129.873V34.1214ZM131.798 25.9759H135.078C136.203 25.9759 137.08 25.7448 137.69 25.2826C138.3 24.8205 138.605 24.1273 138.605 23.2029C138.605 22.3171 138.338 21.6432 137.785 21.2003C137.232 20.7574 136.489 20.5263 135.535 20.5263H131.798V25.9759Z" fill="#093A41"/>
<path d="M148.349 34.1214V18.9473H153.42C154.488 18.9473 155.442 19.1206 156.281 19.4864C157.119 19.8523 157.787 20.3915 158.263 21.104C158.74 21.8165 158.988 22.7023 158.988 23.7421C158.988 24.7435 158.759 25.61 158.321 26.3225C157.882 27.035 157.253 27.5742 156.452 27.94C155.651 28.3059 154.736 28.4985 153.687 28.4985H150.313V34.1021H148.349V34.1214ZM150.313 26.8617H153.649C154.679 26.8617 155.518 26.5728 156.166 25.9951C156.814 25.4174 157.139 24.6279 157.139 23.6266C157.139 22.6252 156.814 21.855 156.147 21.3351C155.48 20.8151 154.622 20.5648 153.573 20.5648H150.332V26.8617H150.313Z" fill="#093A41"/>
<path d="M161.257 34.1214V18.9473H170.733L170.714 20.6611H163.202V25.61H169.99V27.3046H163.202V32.369L170.943 32.3883V34.1214H161.257Z" fill="#093A41"/>
<path d="M179.466 34.3341C178.131 34.3341 176.968 34.026 175.996 33.429C175.023 32.8128 174.26 31.9463 173.727 30.7716C173.193 29.6162 172.926 28.2105 172.926 26.5737C172.926 24.9176 173.193 23.5119 173.727 22.3373C174.26 21.1626 175.023 20.2768 175.996 19.6606C176.968 19.0444 178.131 18.7363 179.447 18.7363C180.781 18.7363 181.925 19.0444 182.898 19.6606C183.87 20.2768 184.614 21.1626 185.148 22.318C185.682 23.4734 185.929 24.8984 185.929 26.5544C185.929 28.1912 185.663 29.597 185.148 30.7524C184.633 31.9077 183.87 32.7935 182.917 33.4097C181.964 34.026 180.8 34.3341 179.466 34.3341ZM179.466 32.6395C180.4 32.6395 181.182 32.4277 181.83 32.004C182.478 31.5804 182.974 30.9257 183.317 30.0206C183.66 29.1348 183.832 27.9794 183.832 26.593C183.832 25.1872 183.66 24.0126 183.317 23.1075C182.974 22.2025 182.478 21.5285 181.83 21.0856C181.182 20.6427 180.4 20.4309 179.466 20.4309C178.551 20.4309 177.769 20.6427 177.101 21.0856C176.434 21.5285 175.938 22.2025 175.576 23.1075C175.214 24.0126 175.042 25.168 175.042 26.5737C175.042 27.9602 175.214 29.1156 175.576 30.0014C175.919 30.9064 176.434 31.5611 177.101 31.9848C177.769 32.4277 178.551 32.6395 179.466 32.6395Z" fill="#093A41"/>
<path d="M188.751 34.1214V18.9473H193.823C194.891 18.9473 195.844 19.1206 196.683 19.4864C197.522 19.8523 198.189 20.3915 198.666 21.104C199.142 21.8165 199.39 22.7023 199.39 23.7421C199.39 24.7435 199.162 25.61 198.723 26.3225C198.284 27.035 197.655 27.5742 196.854 27.94C196.054 28.3059 195.138 28.4985 194.09 28.4985H190.715V34.1021H188.751V34.1214ZM190.715 26.8617H194.052C195.081 26.8617 195.92 26.5728 196.568 25.9951C197.217 25.4174 197.541 24.6279 197.541 23.6266C197.541 22.6252 197.217 21.855 196.549 21.3351C195.882 20.8151 195.024 20.5648 193.975 20.5648H190.734V26.8617H190.715Z" fill="#093A41"/>
<path d="M201.659 34.1214L201.678 18.9473H203.642V32.369H210.735V34.1021H201.659V34.1214Z" fill="#093A41"/>
<path d="M213.347 34.1214V18.9473H222.823L222.804 20.6611H215.273V25.61H222.061V27.3046H215.273V32.369L223.014 32.3883V34.1214H213.347Z" fill="#093A41"/>
<path d="M224.331 36.7602L225.494 34.1605L224.598 34.1028V31.792H227V33.8139L225.227 36.7602H224.331Z" fill="#093A41"/>
<path d="M108.441 53.2826C107.087 53.2826 105.943 52.9745 104.99 52.3583C104.037 51.7421 103.312 50.837 102.816 49.6816C102.321 48.507 102.054 47.1012 102.054 45.4452C102.054 43.8084 102.302 42.4027 102.797 41.2473C103.293 40.0919 104.018 39.2061 104.971 38.6092C105.924 38.0122 107.068 37.7041 108.441 37.7041C109.509 37.7041 110.443 37.9352 111.263 38.3781C112.083 38.821 112.731 39.4179 113.227 40.1497C113.723 40.9007 114.028 41.7094 114.104 42.5952H112.064C111.949 41.9983 111.74 41.4591 111.435 40.9777C111.13 40.4963 110.71 40.1112 110.214 39.8223C109.719 39.5335 109.108 39.3987 108.403 39.3987C107.488 39.3987 106.725 39.6105 106.096 40.0341C105.467 40.4578 104.99 41.1317 104.666 42.0175C104.342 42.9033 104.189 44.0587 104.189 45.4645C104.189 47.5827 104.551 49.1232 105.257 50.1245C105.982 51.1066 107.011 51.6073 108.384 51.6073C109.089 51.6073 109.7 51.4532 110.195 51.1644C110.71 50.8563 111.111 50.4519 111.416 49.9512C111.721 49.4505 111.93 48.9114 112.045 48.3144H114.085C114.009 48.9499 113.837 49.5853 113.57 50.1823C113.303 50.7792 112.941 51.3184 112.483 51.7806C112.026 52.2427 111.454 52.6279 110.767 52.8974C110.119 53.1478 109.318 53.2826 108.441 53.2826Z" fill="#093A41"/>
<path d="M117.002 53.0715L117.021 37.8975H118.985V51.3192H126.078V53.0523H117.002V53.0715Z" fill="#093A41"/>
<path d="M128.786 53.0715V37.8975H130.711V53.0715H128.786Z" fill="#093A41"/>
<path d="M134.468 53.0715V37.8975H137.118L141.656 50.4142L146.251 37.8975H148.901V53.0715H146.919V40.8052L142.571 53.0715H140.779L136.451 40.9207V53.0715H134.468Z" fill="#093A41"/>
<path d="M151.532 53.0715L156.966 37.8975H159.14L164.574 53.0715H162.61L161.142 48.9122H154.983L153.496 53.0715H151.532ZM155.479 47.1406H160.608L158.053 39.8038L155.479 47.1406Z" fill="#093A41"/>
<path d="M168.694 53.0715V39.6883H163.851V37.8975H175.215V39.6883H170.638V53.0715H168.694Z" fill="#093A41"/>
<path d="M177.482 53.0715V37.8975H186.958L186.939 39.6113H179.408V44.5602H186.196V46.2548H179.408V51.3192L187.149 51.3385V53.0715H177.482Z" fill="#093A41"/>
<path d="M198.437 53.1672C197.465 53.1672 196.626 52.9939 195.959 52.6665C195.291 52.3392 194.776 51.877 194.433 51.2801C194.09 50.6831 193.918 50.0091 193.918 49.2389C193.918 48.5842 194.052 47.9679 194.3 47.448C194.567 46.9088 194.948 46.4274 195.482 45.9653C196.016 45.5031 196.683 45.0602 197.465 44.6366C197.084 44.2129 196.74 43.8085 196.454 43.4234C196.168 43.0383 195.959 42.6532 195.806 42.2488C195.654 41.8444 195.577 41.44 195.577 40.9779C195.577 40.3424 195.749 39.784 196.073 39.2833C196.397 38.7826 196.855 38.3782 197.446 38.0894C198.037 37.8005 198.704 37.6465 199.467 37.6465C200.211 37.6465 200.878 37.7813 201.507 38.0509C202.136 38.3205 202.632 38.6863 203.013 39.1677C203.395 39.6492 203.585 40.2268 203.585 40.8816C203.585 41.1512 203.528 41.44 203.433 41.7481C203.318 42.0562 203.147 42.4028 202.88 42.7494C202.632 43.0961 202.27 43.4619 201.793 43.8471C201.336 44.2322 200.744 44.5981 200.02 44.9832L203.318 48.873C203.452 48.6804 203.605 48.3916 203.795 48.0257C203.986 47.6406 204.157 47.1977 204.329 46.6585C204.501 46.1193 204.596 45.5416 204.634 44.8677H206.522C206.426 45.5801 206.255 46.2541 206.026 46.8511C205.797 47.448 205.53 48.0065 205.225 48.5456C204.92 49.0656 204.596 49.5662 204.272 50.0476L206.808 53.0516H204.577L203.128 51.3571C202.365 51.9925 201.583 52.4354 200.802 52.7243C200.001 53.0324 199.219 53.1672 198.437 53.1672ZM198.857 51.6267C199.448 51.6267 200.02 51.4919 200.611 51.2415C201.202 50.972 201.717 50.6253 202.155 50.2017L198.456 45.8497C197.732 46.2541 197.141 46.7355 196.683 47.294C196.226 47.8717 195.997 48.5071 196.035 49.2196C196.054 49.7203 196.207 50.1439 196.473 50.5098C196.74 50.8757 197.084 51.1453 197.503 51.3378C197.923 51.5304 198.361 51.6267 198.857 51.6267ZM199.181 43.9241C199.905 43.5004 200.458 43.1153 200.84 42.788C201.221 42.4606 201.488 42.1332 201.622 41.8444C201.755 41.5555 201.831 41.2474 201.831 40.9393C201.831 40.4772 201.717 40.0921 201.488 39.8032C201.259 39.5144 200.973 39.3025 200.63 39.187C200.287 39.0522 199.925 38.9944 199.543 38.9944C198.895 38.9944 198.38 39.187 198.037 39.5721C197.694 39.938 197.522 40.3809 197.522 40.8816C197.522 41.2282 197.598 41.5555 197.732 41.9022C197.884 42.2488 198.056 42.5569 198.247 42.8265C198.456 43.1153 198.628 43.3271 198.781 43.5004L199.181 43.9241Z" fill="#093A41"/>
<path d="M102.912 72.0178V56.8438H104.742L112.674 68.6287V56.8438H114.6V72.0178H112.884L104.818 60.0596V72.0178H102.912Z" fill="#093A41"/>
<path d="M117.25 72.0178L122.685 56.8438H124.858L130.292 72.0178H128.309L126.841 67.8584H120.683L119.195 72.0178H117.25ZM121.197 66.0868H126.326L123.771 58.7501L121.197 66.0868Z" fill="#093A41"/>
<path d="M134.41 72.0178V58.6346H129.567V56.8438H140.931V58.6346H136.355V72.0178H134.41Z" fill="#093A41"/>
<path d="M148.672 72.2313C147.376 72.2313 146.308 72.0195 145.507 71.5766C144.707 71.1337 144.115 70.4982 143.734 69.6702C143.372 68.8229 143.181 67.8023 143.181 66.5699V56.8454H145.183V66.8588C145.183 68.0912 145.488 68.9962 146.079 69.6125C146.689 70.2287 147.547 70.5175 148.672 70.5175C149.435 70.5175 150.064 70.3827 150.598 70.1131C151.132 69.8435 151.532 69.4391 151.818 68.9C152.105 68.3608 152.238 67.6676 152.238 66.8395V56.8262H154.164V66.7432C154.164 67.9179 153.973 68.9 153.592 69.7087C153.21 70.5175 152.619 71.1337 151.818 71.5574C151.018 72.0195 149.969 72.2313 148.672 72.2313Z" fill="#093A41"/>
<path d="M157.539 72.0178V56.8438H163.354C164.441 56.8438 165.337 57.0171 166.062 57.3444C166.786 57.6718 167.339 58.1532 167.701 58.7694C168.064 59.3856 168.235 60.1366 168.235 60.9839C168.235 61.8119 168.083 62.4859 167.797 63.0443C167.511 63.5835 167.148 64.0264 166.71 64.3538C166.271 64.6811 165.814 64.9507 165.337 65.124L168.292 71.9986H166.252L163.507 65.4706H159.464V72.0178H157.539ZM159.445 63.8724H162.725C163.85 63.8724 164.727 63.6413 165.337 63.1791C165.947 62.717 166.252 62.0237 166.252 61.0994C166.252 60.2136 165.985 59.5396 165.432 59.0968C164.879 58.6539 164.136 58.4228 163.182 58.4228H159.445V63.8724Z" fill="#093A41"/>
<path d="M171.381 72.0178V56.8438H180.858L180.839 58.5576H173.307V63.5065H180.095V65.201H173.307V70.2655L181.048 70.2848V72.0178H171.381Z" fill="#093A41"/>
</svg>
