<svg width="334" height="334" viewBox="0 0 334 334" fill="none" xmlns="http://www.w3.org/2000/svg">
<g opacity="0.1" clip-path="url(#clip0_727_11370)">
<path d="M337.5 815.875C607.774 815.875 826.875 596.774 826.875 326.5C826.875 56.2257 607.774 -162.875 337.5 -162.875C67.2257 -162.875 -151.875 56.2257 -151.875 326.5C-151.875 596.774 67.2257 815.875 337.5 815.875Z" stroke="#052923" stroke-width="2" stroke-miterlimit="10"/>
<path d="M337.5 799C598.455 799 810 587.455 810 326.5C810 65.5455 598.455 -146 337.5 -146C76.5455 -146 -135 65.5455 -135 326.5C-135 587.455 76.5455 799 337.5 799Z" stroke="#052923" stroke-width="2" stroke-miterlimit="10"/>
<path d="M337.5 782.125C589.135 782.125 793.125 578.135 793.125 326.5C793.125 74.8653 589.135 -129.125 337.5 -129.125C85.8653 -129.125 -118.125 74.8653 -118.125 326.5C-118.125 578.135 85.8653 782.125 337.5 782.125Z" stroke="#052923" stroke-width="2" stroke-miterlimit="10"/>
<path d="M337.5 765.25C579.815 765.25 776.25 568.815 776.25 326.5C776.25 84.1851 579.815 -112.25 337.5 -112.25C95.1851 -112.25 -101.25 84.1851 -101.25 326.5C-101.25 568.815 95.1851 765.25 337.5 765.25Z" stroke="#052923" stroke-width="2" stroke-miterlimit="10"/>
<path d="M337.5 748.375C570.495 748.375 759.375 559.495 759.375 326.5C759.375 93.5049 570.495 -95.375 337.5 -95.375C104.505 -95.375 -84.375 93.5049 -84.375 326.5C-84.375 559.495 104.505 748.375 337.5 748.375Z" stroke="#052923" stroke-width="2" stroke-miterlimit="10"/>
<path d="M337.5 731.5C561.175 731.5 742.5 550.175 742.5 326.5C742.5 102.825 561.175 -78.5 337.5 -78.5C113.825 -78.5 -67.5 102.825 -67.5 326.5C-67.5 550.175 113.825 731.5 337.5 731.5Z" stroke="#052923" stroke-width="2" stroke-miterlimit="10"/>
<path d="M337.5 714.625C551.856 714.625 725.625 540.856 725.625 326.5C725.625 112.144 551.856 -61.625 337.5 -61.625C123.144 -61.625 -50.625 112.144 -50.625 326.5C-50.625 540.856 123.144 714.625 337.5 714.625Z" stroke="#052923" stroke-width="2" stroke-miterlimit="10"/>
<path d="M337.5 697.75C542.536 697.75 708.75 531.536 708.75 326.5C708.75 121.464 542.536 -44.75 337.5 -44.75C132.464 -44.75 -33.75 121.464 -33.75 326.5C-33.75 531.536 132.464 697.75 337.5 697.75Z" stroke="#052923" stroke-width="2" stroke-miterlimit="10"/>
<path d="M337.5 680.875C533.216 680.875 691.875 522.216 691.875 326.5C691.875 130.784 533.216 -27.875 337.5 -27.875C141.784 -27.875 -16.875 130.784 -16.875 326.5C-16.875 522.216 141.784 680.875 337.5 680.875Z" stroke="#052923" stroke-width="2" stroke-miterlimit="10"/>
<path d="M337.5 664C523.896 664 675 512.896 675 326.5C675 140.104 523.896 -11 337.5 -11C151.104 -11 0 140.104 0 326.5C0 512.896 151.104 664 337.5 664Z" stroke="#052923" stroke-width="2" stroke-miterlimit="10"/>
<path d="M337.5 647.125C514.576 647.125 658.125 503.576 658.125 326.5C658.125 149.424 514.576 5.875 337.5 5.875C160.424 5.875 16.875 149.424 16.875 326.5C16.875 503.576 160.424 647.125 337.5 647.125Z" stroke="#052923" stroke-width="2" stroke-miterlimit="10"/>
<path d="M337.5 630.25C505.257 630.25 641.25 494.257 641.25 326.5C641.25 158.744 505.257 22.75 337.5 22.75C169.744 22.75 33.75 158.744 33.75 326.5C33.75 494.257 169.744 630.25 337.5 630.25Z" stroke="#052923" stroke-width="2" stroke-miterlimit="10"/>
<path d="M337.5 613.375C495.937 613.375 624.375 484.937 624.375 326.5C624.375 168.063 495.937 39.625 337.5 39.625C179.063 39.625 50.625 168.063 50.625 326.5C50.625 484.937 179.063 613.375 337.5 613.375Z" stroke="#052923" stroke-width="2" stroke-miterlimit="10"/>
<path d="M337.5 596.5C486.617 596.5 607.5 475.617 607.5 326.5C607.5 177.383 486.617 56.5 337.5 56.5C188.383 56.5 67.5 177.383 67.5 326.5C67.5 475.617 188.383 596.5 337.5 596.5Z" stroke="#052923" stroke-width="2" stroke-miterlimit="10"/>
<path d="M337.5 579.625C477.297 579.625 590.625 466.297 590.625 326.5C590.625 186.703 477.297 73.375 337.5 73.375C197.703 73.375 84.375 186.703 84.375 326.5C84.375 466.297 197.703 579.625 337.5 579.625Z" stroke="#052923" stroke-width="2" stroke-miterlimit="10"/>
<path d="M337.5 562.75C467.977 562.75 573.75 456.977 573.75 326.5C573.75 196.023 467.977 90.25 337.5 90.25C207.023 90.25 101.25 196.023 101.25 326.5C101.25 456.977 207.023 562.75 337.5 562.75Z" stroke="#052923" stroke-width="2" stroke-miterlimit="10"/>
<path d="M337.5 545.875C458.657 545.875 556.875 447.657 556.875 326.5C556.875 205.343 458.657 107.125 337.5 107.125C216.343 107.125 118.125 205.343 118.125 326.5C118.125 447.657 216.343 545.875 337.5 545.875Z" stroke="#052923" stroke-width="2" stroke-miterlimit="10"/>
<path d="M337.5 529C449.338 529 540 438.338 540 326.5C540 214.662 449.338 124 337.5 124C225.662 124 135 214.662 135 326.5C135 438.338 225.662 529 337.5 529Z" stroke="#052923" stroke-width="2" stroke-miterlimit="10"/>
<path d="M337.5 512.125C440.018 512.125 523.125 429.018 523.125 326.5C523.125 223.982 440.018 140.875 337.5 140.875C234.982 140.875 151.875 223.982 151.875 326.5C151.875 429.018 234.982 512.125 337.5 512.125Z" stroke="#052923" stroke-width="2" stroke-miterlimit="10"/>
<path d="M337.5 495.25C430.698 495.25 506.25 419.698 506.25 326.5C506.25 233.302 430.698 157.75 337.5 157.75C244.302 157.75 168.75 233.302 168.75 326.5C168.75 419.698 244.302 495.25 337.5 495.25Z" stroke="#052923" stroke-width="2" stroke-miterlimit="10"/>
<path d="M337.5 478.375C421.378 478.375 489.375 410.378 489.375 326.5C489.375 242.622 421.378 174.625 337.5 174.625C253.622 174.625 185.625 242.622 185.625 326.5C185.625 410.378 253.622 478.375 337.5 478.375Z" stroke="#052923" stroke-width="2" stroke-miterlimit="10"/>
<path d="M337.5 461.5C412.058 461.5 472.5 401.058 472.5 326.5C472.5 251.942 412.058 191.5 337.5 191.5C262.942 191.5 202.5 251.942 202.5 326.5C202.5 401.058 262.942 461.5 337.5 461.5Z" stroke="#052923" stroke-width="2" stroke-miterlimit="10"/>
<path d="M337.5 444.625C402.739 444.625 455.625 391.739 455.625 326.5C455.625 261.261 402.739 208.375 337.5 208.375C272.261 208.375 219.375 261.261 219.375 326.5C219.375 391.739 272.261 444.625 337.5 444.625Z" stroke="#052923" stroke-width="2" stroke-miterlimit="10"/>
<path d="M337.5 427.75C393.419 427.75 438.75 382.419 438.75 326.5C438.75 270.581 393.419 225.25 337.5 225.25C281.581 225.25 236.25 270.581 236.25 326.5C236.25 382.419 281.581 427.75 337.5 427.75Z" stroke="#052923" stroke-width="2" stroke-miterlimit="10"/>
<path d="M337.5 410.875C384.099 410.875 421.875 373.099 421.875 326.5C421.875 279.901 384.099 242.125 337.5 242.125C290.901 242.125 253.125 279.901 253.125 326.5C253.125 373.099 290.901 410.875 337.5 410.875Z" stroke="#052923" stroke-width="2" stroke-miterlimit="10"/>
<path d="M337.5 394C374.779 394 405 363.779 405 326.5C405 289.221 374.779 259 337.5 259C300.221 259 270 289.221 270 326.5C270 363.779 300.221 394 337.5 394Z" stroke="#052923" stroke-width="2" stroke-miterlimit="10"/>
<path d="M337.5 377.125C365.459 377.125 388.125 354.459 388.125 326.5C388.125 298.541 365.459 275.875 337.5 275.875C309.541 275.875 286.875 298.541 286.875 326.5C286.875 354.459 309.541 377.125 337.5 377.125Z" stroke="#052923" stroke-width="2" stroke-miterlimit="10"/>
<path d="M337.5 360.25C356.14 360.25 371.25 345.14 371.25 326.5C371.25 307.86 356.14 292.75 337.5 292.75C318.86 292.75 303.75 307.86 303.75 326.5C303.75 345.14 318.86 360.25 337.5 360.25Z" stroke="#052923" stroke-width="2" stroke-miterlimit="10"/>
<path d="M337.5 343.375C346.82 343.375 354.375 335.82 354.375 326.5C354.375 317.18 346.82 309.625 337.5 309.625C328.18 309.625 320.625 317.18 320.625 326.5C320.625 335.82 328.18 343.375 337.5 343.375Z" stroke="#052923" stroke-width="2" stroke-miterlimit="10"/>
</g>
<defs>
<clipPath id="clip0_727_11370">
<rect width="675" height="675" fill="white" transform="translate(0 -11)"/>
</clipPath>
</defs>
</svg>
