<svg width="326" height="83" viewBox="0 0 326 83" fill="none" xmlns="http://www.w3.org/2000/svg">
<path d="M6 82.3333C8.94552 82.3333 11.3333 79.9455 11.3333 77C11.3333 74.0545 8.94552 71.6667 6 71.6667C3.05448 71.6667 0.666667 74.0545 0.666667 77C0.666667 79.9455 3.05448 82.3333 6 82.3333ZM317.293 57.7071C317.683 58.0977 318.317 58.0977 318.707 57.7071L325.071 51.3432C325.462 50.9527 325.462 50.3195 325.071 49.929C324.681 49.5384 324.047 49.5384 323.657 49.929L318 55.5858L312.343 49.929C311.953 49.5384 311.319 49.5384 310.929 49.929C310.538 50.3195 310.538 50.9527 310.929 51.3432L317.293 57.7071ZM6 21L5 21L6 21ZM7 77L7 21L5 21L5 77L7 77ZM26 1.99999L298 2L298 -1.06428e-06L26 -1.42866e-05L26 1.99999ZM317 21L317 57L319 57L319 21L317 21ZM298 2C308.493 2 317 10.5066 317 21L319 21C319 9.40202 309.598 -5.00483e-07 298 -1.06428e-06L298 2ZM7 21C7 10.5066 15.5066 1.99999 26 1.99999L26 -1.42866e-05C14.402 -1.48504e-05 5 9.40201 5 21L7 21Z" fill="#678DE3"/>
</svg>
