<svg width="788" height="750" viewBox="0 0 788 750" fill="none" xmlns="http://www.w3.org/2000/svg">
<circle cx="707.038" cy="489.974" r="13.9737" fill="#678DE3"/>
<path d="M708.651 515.59C707.946 516.853 706.13 516.853 705.425 515.59L694.533 496.075C693.846 494.843 694.736 493.328 696.146 493.328L717.93 493.328C719.34 493.328 720.23 494.843 719.543 496.075L708.651 515.59Z" fill="#678DE3"/>
<circle cx="702.038" cy="219.974" r="13.9737" fill="#678DE3"/>
<path d="M703.651 245.59C702.946 246.853 701.13 246.853 700.425 245.59L689.533 226.075C688.846 224.843 689.736 223.328 691.146 223.328L712.93 223.328C714.34 223.328 715.23 224.843 714.543 226.075L703.651 245.59Z" fill="#678DE3"/>
<path d="M391.521 203C391.521 200.239 393.759 198 396.521 198H534.479C537.241 198 539.479 200.239 539.479 203V301.988C539.479 304.749 537.241 306.988 534.479 306.988H396.521C393.759 306.988 391.521 304.749 391.521 301.988V203Z" fill="white"/>
<path d="M429.153 217.074V208H434.418V209.209H430.531V211.861H434.041V213.057H430.531V215.865H434.418V217.074H429.153Z" fill="#969EB0"/>
<path d="M425.171 211.484L425.262 209.937H425.106L424.482 211.458L422.714 215.15L420.959 211.458L420.335 209.963H420.179L420.27 211.484V217.074H418.944V208H420.569L422.038 211.172L422.675 212.966H422.792L423.429 211.172L424.885 208H426.497V217.074H425.171V211.484Z" fill="#969EB0"/>
<path d="M415.633 217.074L414.931 214.565H411.876L411.174 217.074H409.822L412.539 208H414.294L417.024 217.074H415.633ZM413.761 210.574L413.475 209.248H413.306L413.02 210.574L412.214 213.434H414.606L413.761 210.574Z" fill="#969EB0"/>
<path d="M403.601 211.627L402.912 209.937H402.743L402.847 211.653V217.074H401.521V208H403.107L405.811 213.447L406.513 215.137H406.682L406.578 213.421V208H407.904V217.074H406.305L403.601 211.627Z" fill="#969EB0"/>
<path d="M507.5 221.962C507.127 221.962 506.865 221.887 506.716 221.738C506.567 221.578 506.492 221.381 506.492 221.146V220.89C506.492 220.655 506.567 220.463 506.716 220.314C506.865 220.154 507.127 220.074 507.5 220.074C507.873 220.074 508.135 220.154 508.284 220.314C508.433 220.463 508.508 220.655 508.508 220.89V221.146C508.508 221.381 508.433 221.578 508.284 221.738C508.135 221.887 507.873 221.962 507.5 221.962ZM503.884 230.954H506.86V224.874H503.884V223.786H508.14V230.954H510.924V232.042H503.884V230.954Z" fill="#2A2E37"/>
<path d="M494.146 230.954H496.562V224.874H494.146V223.786H497.842V225.866H497.922C498.093 225.215 498.413 224.709 498.882 224.346C499.362 223.973 499.97 223.786 500.706 223.786H501.858V225.066H500.306C499.57 225.066 498.973 225.279 498.514 225.706C498.066 226.133 497.842 226.693 497.842 227.386V230.954H501.042V232.042H494.146V230.954Z" fill="#2A2E37"/>
<path d="M488.953 221.962C488.579 221.962 488.318 221.887 488.169 221.738C488.019 221.578 487.945 221.381 487.945 221.146V220.89C487.945 220.655 488.019 220.463 488.169 220.314C488.318 220.154 488.579 220.074 488.953 220.074C489.326 220.074 489.587 220.154 489.737 220.314C489.886 220.463 489.961 220.655 489.961 220.89V221.146C489.961 221.381 489.886 221.578 489.737 221.738C489.587 221.887 489.326 221.962 488.953 221.962ZM485.337 230.954H488.313V224.874H485.337V223.786H489.593V230.954H492.377V232.042H485.337V230.954Z" fill="#2A2E37"/>
<path d="M481.167 230.698H481.103C480.569 231.722 479.721 232.234 478.559 232.234C477.545 232.234 476.751 231.855 476.175 231.098C475.609 230.341 475.327 229.279 475.327 227.914C475.327 226.549 475.609 225.487 476.175 224.73C476.751 223.973 477.545 223.594 478.559 223.594C479.721 223.594 480.569 224.106 481.103 225.13H481.167V223.786H482.447V235.242H481.167V230.698ZM479.055 231.098C479.343 231.098 479.615 231.061 479.871 230.986C480.127 230.911 480.351 230.805 480.543 230.666C480.735 230.517 480.884 230.341 480.991 230.138C481.108 229.925 481.167 229.679 481.167 229.402V226.426C481.167 226.149 481.108 225.909 480.991 225.706C480.884 225.493 480.735 225.317 480.543 225.178C480.351 225.029 480.127 224.917 479.871 224.842C479.615 224.767 479.343 224.73 479.055 224.73C478.308 224.73 477.727 224.959 477.311 225.418C476.905 225.866 476.703 226.463 476.703 227.21V228.618C476.703 229.365 476.905 229.967 477.311 230.426C477.727 230.874 478.308 231.098 479.055 231.098Z" fill="#2A2E37"/>
<path d="M473.013 232.042C472.512 232.042 472.154 231.914 471.941 231.658C471.728 231.402 471.594 231.082 471.541 230.698H471.461C471.28 231.178 470.986 231.557 470.581 231.834C470.186 232.101 469.653 232.234 468.981 232.234C468.117 232.234 467.429 232.01 466.917 231.562C466.405 231.114 466.149 230.501 466.149 229.722C466.149 228.954 466.426 228.362 466.981 227.946C467.546 227.53 468.453 227.322 469.701 227.322H471.461V226.506C471.461 225.898 471.29 225.445 470.949 225.146C470.608 224.837 470.122 224.682 469.493 224.682C468.938 224.682 468.485 224.794 468.133 225.018C467.781 225.231 467.498 225.525 467.285 225.898L466.421 225.258C466.528 225.045 466.672 224.837 466.853 224.634C467.034 224.431 467.258 224.255 467.525 224.106C467.792 223.946 468.096 223.823 468.437 223.738C468.778 223.642 469.157 223.594 469.573 223.594C470.544 223.594 471.312 223.839 471.877 224.33C472.453 224.821 472.741 225.503 472.741 226.378V230.922H473.893V232.042H473.013ZM469.205 231.162C469.536 231.162 469.834 231.125 470.101 231.05C470.378 230.965 470.618 230.858 470.821 230.73C471.024 230.591 471.178 230.431 471.285 230.25C471.402 230.058 471.461 229.855 471.461 229.642V228.282H469.701C468.933 228.282 468.373 228.389 468.021 228.602C467.669 228.815 467.493 229.125 467.493 229.53V229.866C467.493 230.293 467.642 230.618 467.941 230.842C468.25 231.055 468.672 231.162 469.205 231.162Z" fill="#2A2E37"/>
<path d="M457.387 220.202H458.667V225.13H458.731C458.817 224.927 458.923 224.735 459.051 224.554C459.179 224.362 459.334 224.197 459.515 224.058C459.707 223.919 459.931 223.807 460.187 223.722C460.443 223.637 460.742 223.594 461.083 223.594C461.947 223.594 462.641 223.871 463.163 224.426C463.686 224.97 463.947 225.743 463.947 226.746V232.042H462.667V226.97C462.667 226.213 462.502 225.653 462.171 225.29C461.841 224.917 461.355 224.73 460.715 224.73C460.459 224.73 460.209 224.762 459.963 224.826C459.718 224.89 459.499 224.986 459.307 225.114C459.115 225.242 458.961 225.407 458.843 225.61C458.726 225.813 458.667 226.047 458.667 226.314V232.042H457.387V220.202Z" fill="#2A2E37"/>
<path d="M451.314 232.234C450.311 232.234 449.49 232.053 448.85 231.69C448.21 231.317 447.682 230.842 447.266 230.266L448.242 229.466C448.679 230.01 449.138 230.415 449.618 230.682C450.108 230.949 450.69 231.082 451.362 231.082C452.172 231.082 452.791 230.895 453.218 230.522C453.644 230.149 453.858 229.626 453.858 228.954C453.858 228.41 453.703 227.989 453.394 227.69C453.084 227.381 452.546 227.162 451.778 227.034L450.53 226.826C449.986 226.73 449.527 226.586 449.154 226.394C448.791 226.202 448.498 225.973 448.274 225.706C448.05 225.429 447.89 225.13 447.794 224.81C447.698 224.479 447.65 224.138 447.65 223.786C447.65 222.762 447.986 221.989 448.658 221.466C449.33 220.943 450.236 220.682 451.378 220.682C452.274 220.682 453.026 220.831 453.634 221.13C454.252 221.429 454.748 221.85 455.122 222.394L454.178 223.21C453.868 222.805 453.495 222.474 453.058 222.218C452.62 221.962 452.055 221.834 451.362 221.834C450.604 221.834 450.023 221.994 449.618 222.314C449.212 222.634 449.01 223.114 449.01 223.754C449.01 224.255 449.159 224.666 449.458 224.986C449.767 225.295 450.316 225.519 451.106 225.658L452.306 225.866C452.85 225.962 453.308 226.106 453.682 226.298C454.055 226.49 454.354 226.719 454.578 226.986C454.812 227.253 454.978 227.551 455.074 227.882C455.17 228.213 455.218 228.559 455.218 228.922C455.218 229.957 454.876 230.767 454.194 231.354C453.522 231.941 452.562 232.234 451.314 232.234Z" fill="#2A2E37"/>
<path d="M429.23 230.954H431.646V224.874H429.23V223.786H432.926V225.866H433.006C433.177 225.215 433.497 224.709 433.966 224.346C434.446 223.973 435.054 223.786 435.79 223.786H436.942V225.066H435.39C434.654 225.066 434.057 225.279 433.598 225.706C433.15 226.133 432.926 226.693 432.926 227.386V230.954H436.126V232.042H429.23V230.954Z" fill="#2A2E37"/>
<path d="M424.036 221.962C423.663 221.962 423.402 221.887 423.252 221.738C423.103 221.578 423.028 221.381 423.028 221.146V220.89C423.028 220.655 423.103 220.463 423.252 220.314C423.402 220.154 423.663 220.074 424.036 220.074C424.41 220.074 424.671 220.154 424.82 220.314C424.97 220.463 425.044 220.655 425.044 220.89V221.146C425.044 221.381 424.97 221.578 424.82 221.738C424.671 221.887 424.41 221.962 424.036 221.962ZM420.42 230.954H423.396V224.874H420.42V223.786H424.676V230.954H427.46V232.042H420.42V230.954Z" fill="#2A2E37"/>
<path d="M410.731 230.954H413.611V221.29H410.731V220.202H414.891V230.954H417.771V232.042H410.731V230.954Z" fill="#2A2E37"/>
<path d="M401.521 232.042V230.97H404.305V221.946H401.521V220.874H408.433V221.946H405.649V230.97H408.433V232.042H401.521Z" fill="#2A2E37"/>
<path d="M458.769 259.472V250.398H464.034V251.607H460.147V254.259H463.657V255.455H460.147V258.263H464.034V259.472H458.769Z" fill="#969EB0"/>
<path d="M450.096 250.398H453.086C453.623 250.398 454.1 250.485 454.516 250.658C454.94 250.831 455.296 251.104 455.582 251.477C455.876 251.841 456.097 252.309 456.245 252.881C456.401 253.453 456.479 254.138 456.479 254.935C456.479 255.732 456.401 256.417 456.245 256.989C456.097 257.561 455.876 258.033 455.582 258.406C455.296 258.77 454.94 259.039 454.516 259.212C454.1 259.385 453.623 259.472 453.086 259.472H450.096V250.398ZM453.086 258.263C453.684 258.263 454.152 258.072 454.49 257.691C454.828 257.301 454.997 256.733 454.997 255.988V253.882C454.997 253.137 454.828 252.573 454.49 252.192C454.152 251.802 453.684 251.607 453.086 251.607H451.474V258.263H453.086Z" fill="#969EB0"/>
<path d="M444.289 259.628C443.743 259.628 443.253 259.541 442.82 259.368C442.387 259.186 442.014 258.904 441.702 258.523C441.399 258.142 441.165 257.656 441 257.067C440.844 256.469 440.766 255.758 440.766 254.935C440.766 254.112 440.844 253.405 441 252.816C441.165 252.218 441.399 251.728 441.702 251.347C442.014 250.966 442.387 250.688 442.82 250.515C443.253 250.333 443.743 250.242 444.289 250.242C444.835 250.242 445.325 250.333 445.758 250.515C446.191 250.688 446.56 250.966 446.863 251.347C447.175 251.728 447.409 252.218 447.565 252.816C447.73 253.405 447.812 254.112 447.812 254.935C447.812 255.758 447.73 256.469 447.565 257.067C447.409 257.656 447.175 258.142 446.863 258.523C446.56 258.904 446.191 259.186 445.758 259.368C445.325 259.541 444.835 259.628 444.289 259.628ZM444.289 258.406C444.939 258.406 445.442 258.198 445.797 257.782C446.152 257.357 446.33 256.772 446.33 256.027V253.843C446.33 253.098 446.152 252.517 445.797 252.101C445.442 251.676 444.939 251.464 444.289 251.464C443.639 251.464 443.136 251.676 442.781 252.101C442.426 252.517 442.248 253.098 442.248 253.843V256.027C442.248 256.772 442.426 257.357 442.781 257.782C443.136 258.198 443.639 258.406 444.289 258.406Z" fill="#969EB0"/>
<path d="M436.21 259.628C435.682 259.628 435.205 259.541 434.78 259.368C434.364 259.186 434.005 258.904 433.701 258.523C433.407 258.142 433.177 257.656 433.012 257.067C432.856 256.469 432.778 255.758 432.778 254.935C432.778 254.112 432.856 253.405 433.012 252.816C433.177 252.218 433.407 251.728 433.701 251.347C434.005 250.966 434.364 250.688 434.78 250.515C435.205 250.333 435.682 250.242 436.21 250.242C436.982 250.242 437.597 250.411 438.056 250.749C438.524 251.078 438.897 251.577 439.174 252.244L438.004 252.894C437.848 252.383 437.627 252.014 437.341 251.789C437.064 251.564 436.687 251.451 436.21 251.451C435.595 251.451 435.114 251.663 434.767 252.088C434.429 252.513 434.26 253.098 434.26 253.843V256.027C434.26 256.772 434.429 257.357 434.767 257.782C435.114 258.207 435.595 258.419 436.21 258.419C436.696 258.419 437.086 258.298 437.38 258.055C437.684 257.812 437.918 257.422 438.082 256.885L439.226 257.561C438.94 258.228 438.559 258.74 438.082 259.095C437.606 259.45 436.982 259.628 436.21 259.628Z" fill="#969EB0"/>
<path d="M429.086 251.607V259.472H427.708V251.607H425.303V250.398H431.491V251.607H429.086Z" fill="#969EB0"/>
<path d="M420.969 259.628C420.293 259.628 419.704 259.502 419.201 259.251C418.707 258.991 418.283 258.618 417.927 258.133L418.876 257.262C419.145 257.635 419.453 257.921 419.799 258.12C420.146 258.319 420.54 258.419 420.982 258.419C422.057 258.419 422.594 257.925 422.594 256.937C422.594 256.538 422.499 256.235 422.308 256.027C422.118 255.81 421.788 255.646 421.32 255.533L420.579 255.377C419.765 255.195 419.162 254.905 418.772 254.506C418.391 254.099 418.2 253.531 418.2 252.803C418.2 251.962 418.452 251.325 418.954 250.892C419.466 250.459 420.176 250.242 421.086 250.242C421.736 250.242 422.282 250.355 422.724 250.58C423.175 250.797 423.565 251.139 423.894 251.607L422.945 252.439C422.711 252.11 422.447 251.863 422.152 251.698C421.866 251.533 421.502 251.451 421.06 251.451C420.566 251.451 420.194 251.555 419.942 251.763C419.7 251.962 419.578 252.296 419.578 252.764C419.578 253.145 419.674 253.436 419.864 253.635C420.064 253.826 420.384 253.973 420.826 254.077L421.567 254.246C422.001 254.341 422.369 254.463 422.672 254.61C422.976 254.749 423.223 254.922 423.413 255.13C423.613 255.338 423.756 255.585 423.842 255.871C423.929 256.148 423.972 256.473 423.972 256.846C423.972 257.756 423.708 258.449 423.179 258.926C422.659 259.394 421.923 259.628 420.969 259.628Z" fill="#969EB0"/>
<path d="M412.718 259.628C412.172 259.628 411.683 259.541 411.249 259.368C410.816 259.186 410.443 258.904 410.131 258.523C409.828 258.142 409.594 257.656 409.429 257.067C409.273 256.469 409.195 255.758 409.195 254.935C409.195 254.112 409.273 253.405 409.429 252.816C409.594 252.218 409.828 251.728 410.131 251.347C410.443 250.966 410.816 250.688 411.249 250.515C411.683 250.333 412.172 250.242 412.718 250.242C413.264 250.242 413.754 250.333 414.187 250.515C414.621 250.688 414.989 250.966 415.292 251.347C415.604 251.728 415.838 252.218 415.994 252.816C416.159 253.405 416.241 254.112 416.241 254.935C416.241 255.758 416.159 256.469 415.994 257.067C415.838 257.656 415.604 258.142 415.292 258.523C414.989 258.904 414.621 259.186 414.187 259.368C413.754 259.541 413.264 259.628 412.718 259.628ZM412.718 258.406C413.368 258.406 413.871 258.198 414.226 257.782C414.582 257.357 414.759 256.772 414.759 256.027V253.843C414.759 253.098 414.582 252.517 414.226 252.101C413.871 251.676 413.368 251.464 412.718 251.464C412.068 251.464 411.566 251.676 411.21 252.101C410.855 252.517 410.677 253.098 410.677 253.843V256.027C410.677 256.772 410.855 257.357 411.21 257.782C411.566 258.198 412.068 258.406 412.718 258.406Z" fill="#969EB0"/>
<path d="M401.521 259.472V250.398H405.109C405.889 250.398 406.474 250.632 406.864 251.1C407.262 251.559 407.462 252.227 407.462 253.102C407.462 253.977 407.262 254.649 406.864 255.117C406.474 255.576 405.889 255.806 405.109 255.806H402.899V259.472H401.521ZM402.899 254.584H404.992C405.321 254.584 405.568 254.502 405.733 254.337C405.906 254.164 405.993 253.891 405.993 253.518V252.686C405.993 252.313 405.906 252.045 405.733 251.88C405.568 251.707 405.321 251.62 404.992 251.62H402.899V254.584Z" fill="#969EB0"/>
<path d="M457.195 273.796L456.315 262.628H457.515L457.979 269.028L458.219 272.404H458.347L459.819 265.54H461.323L462.795 272.404H462.923L463.163 269.028L463.627 262.628H464.795L463.915 273.796H461.979L460.619 267.124H460.491L459.131 273.796H457.195Z" fill="#2A2E37"/>
<path d="M448.002 262.628H451.122C452.487 262.628 453.506 263.097 454.178 264.036C454.85 264.975 455.186 266.367 455.186 268.212C455.186 270.057 454.85 271.449 454.178 272.388C453.506 273.327 452.487 273.796 451.122 273.796H448.002V262.628ZM451.058 272.628C451.954 272.628 452.626 272.319 453.074 271.7C453.532 271.081 453.762 270.207 453.762 269.076V267.348C453.762 266.217 453.532 265.343 453.074 264.724C452.626 264.105 451.954 263.796 451.058 263.796H449.346V272.628H451.058Z" fill="#2A2E37"/>
<path d="M443.256 273.796V271.604H437.752V270.42L442.584 262.628H444.536V270.5H446.2V271.604H444.536V273.796H443.256ZM438.952 270.5H443.256V263.668H443.192L438.952 270.5Z" fill="#2A2E37"/>
<path d="M426.676 263.796H421.684L421.364 268.068H421.476C421.754 267.695 422.063 267.401 422.404 267.188C422.746 266.964 423.215 266.852 423.812 266.852C424.303 266.852 424.751 266.932 425.156 267.092C425.572 267.241 425.93 267.465 426.228 267.764C426.527 268.063 426.762 268.425 426.932 268.852C427.103 269.268 427.188 269.748 427.188 270.292C427.188 270.836 427.103 271.337 426.932 271.796C426.762 272.244 426.511 272.633 426.18 272.964C425.85 273.284 425.45 273.535 424.98 273.716C424.511 273.897 423.978 273.988 423.38 273.988C422.911 273.988 422.49 273.935 422.116 273.828C421.754 273.721 421.428 273.577 421.14 273.396C420.863 273.215 420.618 273.012 420.404 272.788C420.191 272.564 419.999 272.329 419.828 272.084L420.836 271.316C420.986 271.54 421.135 271.743 421.284 271.924C421.444 272.105 421.626 272.265 421.828 272.404C422.031 272.532 422.26 272.633 422.516 272.708C422.772 272.783 423.071 272.82 423.412 272.82C424.18 272.82 424.767 272.612 425.172 272.196C425.588 271.78 425.796 271.204 425.796 270.468V270.34C425.796 269.604 425.588 269.028 425.172 268.612C424.756 268.196 424.159 267.988 423.38 267.988C422.847 267.988 422.431 268.079 422.132 268.26C421.844 268.441 421.578 268.665 421.332 268.932L420.196 268.772L420.596 262.628H426.676V263.796Z" fill="#2A2E37"/>
<path d="M412.171 273.796H410.827V262.628H414.891C415.925 262.628 416.715 262.911 417.259 263.476C417.803 264.041 418.075 264.831 418.075 265.844C418.075 266.751 417.84 267.476 417.371 268.02C416.901 268.564 416.219 268.879 415.323 268.964L418.171 273.796H416.667L413.947 269.028H412.171V273.796ZM414.859 267.892C415.424 267.892 415.861 267.753 416.171 267.476C416.491 267.188 416.651 266.783 416.651 266.26V265.428C416.651 264.905 416.491 264.505 416.171 264.228C415.861 263.94 415.424 263.796 414.859 263.796H412.171V267.892H414.859Z" fill="#2A2E37"/>
<path d="M401.521 262.628H405.313C406.273 262.628 407.025 262.889 407.569 263.412C408.113 263.935 408.385 264.633 408.385 265.508C408.385 266.18 408.219 266.708 407.889 267.092C407.569 267.476 407.153 267.748 406.641 267.908V267.956C407.27 268.105 407.787 268.388 408.193 268.804C408.598 269.209 408.801 269.801 408.801 270.58C408.801 271.028 408.726 271.449 408.577 271.844C408.427 272.239 408.214 272.58 407.937 272.868C407.67 273.156 407.35 273.385 406.977 273.556C406.614 273.716 406.219 273.796 405.793 273.796H401.521V262.628ZM405.393 272.628C406.011 272.628 406.497 272.489 406.849 272.212C407.201 271.935 407.377 271.508 407.377 270.932V270.276C407.377 269.711 407.201 269.289 406.849 269.012C406.497 268.724 406.011 268.58 405.393 268.58H402.865V272.628H405.393ZM405.169 267.476C405.734 267.476 406.177 267.353 406.497 267.108C406.817 266.852 406.977 266.468 406.977 265.956V265.332C406.977 264.82 406.817 264.436 406.497 264.18C406.177 263.924 405.734 263.796 405.169 263.796H402.865V267.476H405.169Z" fill="#2A2E37"/>
<path d="M455.73 307.025C455.334 306.252 455.481 305.312 456.095 304.697L463.224 297.569C464.005 296.788 465.271 296.788 466.052 297.569L473.718 305.235C474.351 305.869 474.486 306.847 474.047 307.628L466.461 321.141C465.68 322.532 463.665 322.494 462.937 321.075L455.73 307.025Z" fill="#DFE1E7"/>
<path d="M391.521 283.988H539.479V301.988C539.479 304.749 537.241 306.988 534.479 306.988H396.521C393.759 306.988 391.521 304.749 391.521 301.988V283.988Z" fill="#DFE1E7"/>
<path d="M419.939 299.856C419.603 299.856 419.347 299.764 419.171 299.58C419.003 299.388 418.919 299.148 418.919 298.86V290.976H419.879V299.016H420.791V299.856H419.939Z" fill="#4B5263"/>
<path d="M416.728 299.856C416.392 299.856 416.136 299.764 415.96 299.58C415.792 299.388 415.708 299.148 415.708 298.86V290.976H416.668V299.016H417.58V299.856H416.728Z" fill="#4B5263"/>
<path d="M413.798 299.856C413.438 299.856 413.178 299.76 413.018 299.568C412.866 299.376 412.77 299.136 412.73 298.848H412.67C412.534 299.232 412.31 299.52 411.998 299.712C411.686 299.904 411.314 300 410.882 300C410.226 300 409.714 299.832 409.346 299.496C408.986 299.16 408.806 298.704 408.806 298.128C408.806 297.544 409.018 297.096 409.442 296.784C409.874 296.472 410.542 296.316 411.446 296.316H412.67V295.704C412.67 295.264 412.55 294.928 412.31 294.696C412.07 294.464 411.702 294.348 411.206 294.348C410.83 294.348 410.514 294.432 410.258 294.6C410.01 294.768 409.802 294.992 409.634 295.272L409.058 294.732C409.226 294.396 409.494 294.112 409.862 293.88C410.23 293.64 410.694 293.52 411.254 293.52C412.006 293.52 412.59 293.704 413.006 294.072C413.422 294.44 413.63 294.952 413.63 295.608V299.016H414.338V299.856H413.798ZM411.038 299.184C411.278 299.184 411.498 299.156 411.698 299.1C411.898 299.044 412.07 298.964 412.214 298.86C412.358 298.756 412.47 298.636 412.55 298.5C412.63 298.364 412.67 298.216 412.67 298.056V297.036H411.398C410.846 297.036 410.442 297.116 410.186 297.276C409.938 297.436 409.814 297.668 409.814 297.972V298.224C409.814 298.528 409.922 298.764 410.138 298.932C410.362 299.1 410.662 299.184 411.038 299.184Z" fill="#4B5263"/>
<path d="M404.893 300C403.829 300 403.001 299.64 402.409 298.92C401.817 298.192 401.521 297.124 401.521 295.716C401.521 294.308 401.817 293.228 402.409 292.476C403.001 291.716 403.829 291.336 404.893 291.336C405.597 291.336 406.185 291.496 406.657 291.816C407.137 292.136 407.509 292.588 407.773 293.172L406.957 293.664C406.789 293.232 406.533 292.888 406.189 292.632C405.845 292.368 405.413 292.236 404.893 292.236C404.533 292.236 404.209 292.304 403.921 292.44C403.641 292.576 403.401 292.772 403.201 293.028C403.009 293.276 402.861 293.576 402.757 293.928C402.653 294.272 402.601 294.66 402.601 295.092V296.34C402.601 297.204 402.801 297.88 403.201 298.368C403.601 298.856 404.165 299.1 404.893 299.1C405.429 299.1 405.877 298.964 406.237 298.692C406.597 298.412 406.861 298.044 407.029 297.588L407.833 298.092C407.569 298.684 407.189 299.152 406.693 299.496C406.197 299.832 405.597 300 404.893 300Z" fill="#4B5263"/>
<path fill-rule="evenodd" clip-rule="evenodd" d="M434.791 301.988L434.791 288.988L435.791 288.988L435.791 301.988L434.791 301.988Z" fill="#C2C6D1"/>
<path d="M470.524 299.604C470.188 299.604 469.932 299.512 469.756 299.328C469.588 299.136 469.504 298.888 469.504 298.584V294.252H468.484V293.412H469.06C469.268 293.412 469.408 293.372 469.48 293.292C469.56 293.204 469.6 293.056 469.6 292.848V291.696H470.464V293.412H471.82V294.252H470.464V298.764H471.724V299.604H470.524Z" fill="#4B5263"/>
<path d="M462.306 299.604L464.598 296.484L462.402 293.412H463.53L465.102 295.716H465.138L466.77 293.412H467.838L465.654 296.412L467.886 299.604H466.758L465.15 297.18H465.114L463.374 299.604H462.306Z" fill="#4B5263"/>
<path d="M458.957 299.748C458.533 299.748 458.149 299.672 457.805 299.52C457.469 299.368 457.177 299.152 456.929 298.872C456.689 298.584 456.501 298.244 456.365 297.852C456.237 297.452 456.173 297.004 456.173 296.508C456.173 296.02 456.237 295.576 456.365 295.176C456.501 294.776 456.689 294.436 456.929 294.156C457.177 293.868 457.469 293.648 457.805 293.496C458.149 293.344 458.533 293.268 458.957 293.268C459.373 293.268 459.745 293.344 460.073 293.496C460.401 293.648 460.681 293.86 460.913 294.132C461.145 294.396 461.321 294.712 461.441 295.08C461.569 295.448 461.633 295.852 461.633 296.292V296.748H457.181V297.036C457.181 297.3 457.221 297.548 457.301 297.78C457.389 298.004 457.509 298.2 457.661 298.368C457.821 298.536 458.013 298.668 458.237 298.764C458.469 298.86 458.729 298.908 459.017 298.908C459.409 298.908 459.749 298.816 460.037 298.632C460.333 298.448 460.561 298.184 460.721 297.84L461.405 298.332C461.205 298.756 460.893 299.1 460.469 299.364C460.045 299.62 459.541 299.748 458.957 299.748ZM458.957 294.072C458.693 294.072 458.453 294.12 458.237 294.216C458.021 294.304 457.833 294.432 457.673 294.6C457.521 294.768 457.401 294.968 457.313 295.2C457.225 295.424 457.181 295.672 457.181 295.944V296.028H460.601V295.896C460.601 295.344 460.449 294.904 460.145 294.576C459.849 294.24 459.453 294.072 458.957 294.072Z" fill="#4B5263"/>
<path d="M453.463 292.116V299.604H452.455V292.116H449.791V291.228H456.127V292.116H453.463Z" fill="#4B5263"/>
<path fill-rule="evenodd" clip-rule="evenodd" d="M485.82 301.988L485.82 288.988L486.82 288.988L486.82 301.988L485.82 301.988Z" fill="#C2C6D1"/>
<path d="M528.627 299.856C528.291 299.856 528.035 299.764 527.859 299.58C527.691 299.388 527.607 299.148 527.607 298.86V290.976H528.567V299.016H529.479V299.856H528.627Z" fill="#4B5263"/>
<path d="M525.087 292.212C524.879 292.212 524.727 292.164 524.631 292.068C524.543 291.964 524.499 291.832 524.499 291.672V291.516C524.499 291.356 524.543 291.228 524.631 291.132C524.727 291.028 524.879 290.976 525.087 290.976C525.295 290.976 525.443 291.028 525.531 291.132C525.627 291.228 525.675 291.356 525.675 291.516V291.672C525.675 291.832 525.627 291.964 525.531 292.068C525.443 292.164 525.295 292.212 525.087 292.212ZM524.607 293.664H525.567V299.856H524.607V293.664Z" fill="#4B5263"/>
<path d="M522.697 299.856C522.337 299.856 522.077 299.76 521.917 299.568C521.765 299.376 521.669 299.136 521.629 298.848H521.569C521.433 299.232 521.209 299.52 520.897 299.712C520.585 299.904 520.213 300 519.781 300C519.125 300 518.613 299.832 518.245 299.496C517.885 299.16 517.705 298.704 517.705 298.128C517.705 297.544 517.917 297.096 518.341 296.784C518.773 296.472 519.441 296.316 520.345 296.316H521.569V295.704C521.569 295.264 521.449 294.928 521.209 294.696C520.969 294.464 520.601 294.348 520.105 294.348C519.729 294.348 519.413 294.432 519.157 294.6C518.909 294.768 518.701 294.992 518.533 295.272L517.957 294.732C518.125 294.396 518.393 294.112 518.761 293.88C519.129 293.64 519.593 293.52 520.153 293.52C520.905 293.52 521.489 293.704 521.905 294.072C522.321 294.44 522.529 294.952 522.529 295.608V299.016H523.237V299.856H522.697ZM519.937 299.184C520.177 299.184 520.397 299.156 520.597 299.1C520.797 299.044 520.969 298.964 521.113 298.86C521.257 298.756 521.369 298.636 521.449 298.5C521.529 298.364 521.569 298.216 521.569 298.056V297.036H520.297C519.745 297.036 519.341 297.116 519.085 297.276C518.837 297.436 518.713 297.668 518.713 297.972V298.224C518.713 298.528 518.821 298.764 519.037 298.932C519.261 299.1 519.561 299.184 519.937 299.184Z" fill="#4B5263"/>
<path d="M507.72 299.856V293.664H508.68V294.672H508.728C508.8 294.512 508.88 294.364 508.968 294.228C509.064 294.084 509.176 293.96 509.304 293.856C509.44 293.752 509.596 293.672 509.772 293.616C509.948 293.552 510.156 293.52 510.396 293.52C510.804 293.52 511.18 293.62 511.524 293.82C511.868 294.012 512.124 294.332 512.292 294.78H512.316C512.428 294.444 512.636 294.152 512.94 293.904C513.252 293.648 513.672 293.52 514.2 293.52C514.832 293.52 515.324 293.728 515.676 294.144C516.036 294.552 516.216 295.132 516.216 295.884V299.856H515.256V296.052C515.256 295.5 515.148 295.084 514.932 294.804C514.716 294.524 514.372 294.384 513.9 294.384C513.708 294.384 513.524 294.408 513.348 294.456C513.18 294.504 513.028 294.576 512.892 294.672C512.756 294.768 512.648 294.892 512.568 295.044C512.488 295.188 512.448 295.36 512.448 295.56V299.856H511.488V296.052C511.488 295.5 511.38 295.084 511.164 294.804C510.948 294.524 510.612 294.384 510.156 294.384C509.964 294.384 509.78 294.408 509.604 294.456C509.428 294.504 509.272 294.576 509.136 294.672C509 294.768 508.888 294.892 508.8 295.044C508.72 295.188 508.68 295.36 508.68 295.56V299.856H507.72Z" fill="#4B5263"/>
<path d="M500.82 299.856V291.48H505.932V292.368H501.828V295.176H505.692V296.064H501.828V298.968H505.932V299.856H500.82Z" fill="#4B5263"/>
<g opacity="0.92">
<circle cx="465" cy="342.941" r="12.9406" fill="white"/>
<path d="M466.494 366.663C465.841 367.832 464.159 367.832 463.506 366.663L453.42 348.59C452.784 347.45 453.608 346.046 454.913 346.046L475.087 346.046C476.392 346.046 477.216 347.45 476.58 348.59L466.494 366.663Z" fill="white"/>
</g>
</svg>
