<svg width="1273" height="628" viewBox="0 0 1273 628" fill="none" xmlns="http://www.w3.org/2000/svg">
<path d="M625 27C745 27 803.109 30.0948 917 23.5C1015.98 17.7688 1170 2.5 1170 2.5V619C1170 619 1026.41 602.64 934 598C813.87 591.969 757 602 626 602C534.37 602 494.591 502.112 416 455C310.858 391.971 157 313.67 157 313.67C157 313.67 310.573 230.552 416 168C494.067 121.681 534.226 27 625 27Z" fill="url(#paint0_linear_1600_60050)"/>
<rect y="282" width="162" height="65" rx="10" fill="#353A46"/>
<path d="M20.62 326.36C19.26 326.36 18.03 326.13 16.93 325.67C15.85 325.19 14.92 324.5 14.14 323.6C13.38 322.68 12.79 321.55 12.37 320.21C11.95 318.85 11.74 317.29 11.74 315.53C11.74 313.77 11.95 312.22 12.37 310.88C12.79 309.54 13.38 308.41 14.14 307.49C14.92 306.57 15.85 305.88 16.93 305.42C18.03 304.94 19.26 304.7 20.62 304.7C21.96 304.7 23.18 304.94 24.28 305.42C25.38 305.88 26.31 306.57 27.07 307.49C27.85 308.41 28.45 309.54 28.87 310.88C29.29 312.22 29.5 313.77 29.5 315.53C29.5 317.29 29.29 318.85 28.87 320.21C28.45 321.55 27.85 322.68 27.07 323.6C26.31 324.5 25.38 325.19 24.28 325.67C23.18 326.13 21.96 326.36 20.62 326.36ZM20.62 324.11C21.52 324.11 22.35 323.95 23.11 323.63C23.87 323.31 24.52 322.85 25.06 322.25C25.62 321.65 26.05 320.93 26.35 320.09C26.65 319.25 26.8 318.31 26.8 317.27V313.79C26.8 312.75 26.65 311.81 26.35 310.97C26.05 310.13 25.62 309.41 25.06 308.81C24.52 308.21 23.87 307.75 23.11 307.43C22.35 307.11 21.52 306.95 20.62 306.95C19.72 306.95 18.89 307.11 18.13 307.43C17.37 307.75 16.71 308.21 16.15 308.81C15.61 309.41 15.19 310.13 14.89 310.97C14.59 311.81 14.44 312.75 14.44 313.79V317.27C14.44 318.31 14.59 319.25 14.89 320.09C15.19 320.93 15.61 321.65 16.15 322.25C16.71 322.85 17.37 323.31 18.13 323.63C18.89 323.95 19.72 324.11 20.62 324.11ZM33.4902 326V310.52H35.8902V313.37H36.0402C36.3202 312.63 36.8202 311.97 37.5402 311.39C38.2602 310.81 39.2502 310.52 40.5102 310.52H41.4402V312.92H40.0302C38.7302 312.92 37.7102 313.17 36.9702 313.67C36.2502 314.15 35.8902 314.76 35.8902 315.5V326H33.4902ZM56.5527 327.71C56.5527 329.31 55.9227 330.48 54.6627 331.22C53.4227 331.98 51.5527 332.36 49.0527 332.36C46.6327 332.36 44.8927 332.03 43.8327 331.37C42.7727 330.71 42.2427 329.77 42.2427 328.55C42.2427 327.71 42.4627 327.05 42.9027 326.57C43.3427 326.11 43.9427 325.77 44.7027 325.55V325.22C43.7827 324.78 43.3227 324.06 43.3227 323.06C43.3227 322.28 43.5727 321.69 44.0727 321.29C44.5727 320.87 45.2127 320.56 45.9927 320.36V320.24C45.0727 319.8 44.3527 319.17 43.8327 318.35C43.3327 317.53 43.0827 316.58 43.0827 315.5C43.0827 314.72 43.2227 314 43.5027 313.34C43.7827 312.68 44.1727 312.12 44.6727 311.66C45.1927 311.18 45.8027 310.81 46.5027 310.55C47.2227 310.29 48.0227 310.16 48.9027 310.16C50.0027 310.16 50.9827 310.36 51.8427 310.76V310.49C51.8427 309.89 51.9827 309.4 52.2627 309.02C52.5427 308.62 53.0027 308.42 53.6427 308.42H55.9527V310.52H53.0127V311.51C53.5727 311.99 54.0027 312.57 54.3027 313.25C54.6227 313.91 54.7827 314.66 54.7827 315.5C54.7827 316.28 54.6427 317 54.3627 317.66C54.0827 318.32 53.6827 318.89 53.1627 319.37C52.6627 319.83 52.0527 320.19 51.3327 320.45C50.6127 320.71 49.8127 320.84 48.9327 320.84C48.4327 320.84 47.9327 320.79 47.4327 320.69C46.9127 320.83 46.4427 321.04 46.0227 321.32C45.6027 321.58 45.3927 321.95 45.3927 322.43C45.3927 322.89 45.6127 323.2 46.0527 323.36C46.4927 323.52 47.0627 323.6 47.7627 323.6H51.0627C52.9827 323.6 54.3727 323.97 55.2327 324.71C56.1127 325.43 56.5527 326.43 56.5527 327.71ZM54.3027 327.89C54.3027 327.27 54.0627 326.77 53.5827 326.39C53.1227 326.03 52.2927 325.85 51.0927 325.85H45.9327C44.9727 326.29 44.4927 326.99 44.4927 327.95C44.4927 328.63 44.7427 329.21 45.2427 329.69C45.7627 330.17 46.6327 330.41 47.8527 330.41H50.0727C51.4127 330.41 52.4527 330.2 53.1927 329.78C53.9327 329.36 54.3027 328.73 54.3027 327.89ZM48.9327 318.92C49.9527 318.92 50.7627 318.68 51.3627 318.2C51.9627 317.7 52.2627 316.94 52.2627 315.92V315.08C52.2627 314.06 51.9627 313.31 51.3627 312.83C50.7627 312.33 49.9527 312.08 48.9327 312.08C47.9127 312.08 47.1027 312.33 46.5027 312.83C45.9027 313.31 45.6027 314.06 45.6027 315.08V315.92C45.6027 316.94 45.9027 317.7 46.5027 318.2C47.1027 318.68 47.9127 318.92 48.9327 318.92ZM70.2145 326C69.3145 326 68.6645 325.76 68.2645 325.28C67.8845 324.8 67.6445 324.2 67.5445 323.48H67.3945C67.0545 324.44 66.4945 325.16 65.7145 325.64C64.9345 326.12 64.0045 326.36 62.9245 326.36C61.2845 326.36 60.0045 325.94 59.0845 325.1C58.1845 324.26 57.7345 323.12 57.7345 321.68C57.7345 320.22 58.2645 319.1 59.3245 318.32C60.4045 317.54 62.0745 317.15 64.3345 317.15H67.3945V315.62C67.3945 314.52 67.0945 313.68 66.4945 313.1C65.8945 312.52 64.9745 312.23 63.7345 312.23C62.7945 312.23 62.0045 312.44 61.3645 312.86C60.7445 313.28 60.2245 313.84 59.8045 314.54L58.3645 313.19C58.7845 312.35 59.4545 311.64 60.3745 311.06C61.2945 310.46 62.4545 310.16 63.8545 310.16C65.7345 310.16 67.1945 310.62 68.2345 311.54C69.2745 312.46 69.7945 313.74 69.7945 315.38V323.9H71.5645V326H70.2145ZM63.3145 324.32C63.9145 324.32 64.4645 324.25 64.9645 324.11C65.4645 323.97 65.8945 323.77 66.2545 323.51C66.6145 323.25 66.8945 322.95 67.0945 322.61C67.2945 322.27 67.3945 321.9 67.3945 321.5V318.95H64.2145C62.8345 318.95 61.8245 319.15 61.1845 319.55C60.5645 319.95 60.2545 320.53 60.2545 321.29V321.92C60.2545 322.68 60.5245 323.27 61.0645 323.69C61.6245 324.11 62.3745 324.32 63.3145 324.32ZM74.6898 326V310.52H77.0898V313.04H77.2098C77.5898 312.16 78.1198 311.46 78.7998 310.94C79.4998 310.42 80.4298 310.16 81.5898 310.16C83.1898 310.16 84.4498 310.68 85.3698 311.72C86.3098 312.74 86.7798 314.19 86.7798 316.07V326H84.3798V316.49C84.3798 313.71 83.2098 312.32 80.8698 312.32C80.3898 312.32 79.9198 312.38 79.4598 312.5C79.0198 312.62 78.6198 312.8 78.2598 313.04C77.8998 313.28 77.6098 313.59 77.3898 313.97C77.1898 314.33 77.0898 314.76 77.0898 315.26V326H74.6898ZM92.6406 306.89C92.1206 306.89 91.7406 306.77 91.5006 306.53C91.2806 306.27 91.1706 305.94 91.1706 305.54V305.15C91.1706 304.75 91.2806 304.43 91.5006 304.19C91.7406 303.93 92.1206 303.8 92.6406 303.8C93.1606 303.8 93.5306 303.93 93.7506 304.19C93.9906 304.43 94.1106 304.75 94.1106 305.15V305.54C94.1106 305.94 93.9906 306.27 93.7506 306.53C93.5306 306.77 93.1606 306.89 92.6406 306.89ZM91.4406 310.52H93.8406V326H91.4406V310.52ZM103.291 326.36C101.851 326.36 100.641 326.09 99.6606 325.55C98.7006 324.99 97.8706 324.25 97.1706 323.33L98.8806 321.95C99.4806 322.71 100.151 323.3 100.891 323.72C101.631 324.12 102.491 324.32 103.471 324.32C104.491 324.32 105.281 324.1 105.841 323.66C106.421 323.22 106.711 322.6 106.711 321.8C106.711 321.2 106.511 320.69 106.111 320.27C105.731 319.83 105.031 319.53 104.011 319.37L102.781 319.19C102.061 319.09 101.401 318.94 100.801 318.74C100.201 318.52 99.6706 318.24 99.2106 317.9C98.7706 317.54 98.4206 317.1 98.1606 316.58C97.9206 316.06 97.8006 315.44 97.8006 314.72C97.8006 313.96 97.9406 313.3 98.2206 312.74C98.5006 312.16 98.8806 311.68 99.3606 311.3C99.8606 310.92 100.451 310.64 101.131 310.46C101.811 310.26 102.541 310.16 103.321 310.16C104.581 310.16 105.631 310.38 106.471 310.82C107.331 311.26 108.081 311.87 108.721 312.65L107.131 314.09C106.791 313.61 106.291 313.18 105.631 312.8C104.971 312.4 104.141 312.2 103.141 312.2C102.141 312.2 101.381 312.42 100.861 312.86C100.361 313.28 100.111 313.86 100.111 314.6C100.111 315.36 100.361 315.91 100.861 316.25C101.381 316.59 102.121 316.84 103.081 317L104.281 317.18C106.001 317.44 107.221 317.94 107.941 318.68C108.661 319.4 109.021 320.35 109.021 321.53C109.021 323.03 108.511 324.21 107.491 325.07C106.471 325.93 105.071 326.36 103.291 326.36ZM118.78 326.36C117.72 326.36 116.76 326.17 115.9 325.79C115.06 325.41 114.33 324.87 113.71 324.17C113.11 323.45 112.64 322.6 112.3 321.62C111.98 320.62 111.82 319.5 111.82 318.26C111.82 317.04 111.98 315.93 112.3 314.93C112.64 313.93 113.11 313.08 113.71 312.38C114.33 311.66 115.06 311.11 115.9 310.73C116.76 310.35 117.72 310.16 118.78 310.16C119.82 310.16 120.75 310.35 121.57 310.73C122.39 311.11 123.09 311.64 123.67 312.32C124.25 312.98 124.69 313.77 124.99 314.69C125.31 315.61 125.47 316.62 125.47 317.72V318.86H114.34V319.58C114.34 320.24 114.44 320.86 114.64 321.44C114.86 322 115.16 322.49 115.54 322.91C115.94 323.33 116.42 323.66 116.98 323.9C117.56 324.14 118.21 324.26 118.93 324.26C119.91 324.26 120.76 324.03 121.48 323.57C122.22 323.11 122.79 322.45 123.19 321.59L124.9 322.82C124.4 323.88 123.62 324.74 122.56 325.4C121.5 326.04 120.24 326.36 118.78 326.36ZM118.78 312.17C118.12 312.17 117.52 312.29 116.98 312.53C116.44 312.75 115.97 313.07 115.57 313.49C115.19 313.91 114.89 314.41 114.67 314.99C114.45 315.55 114.34 316.17 114.34 316.85V317.06H122.89V316.73C122.89 315.35 122.51 314.25 121.75 313.43C121.01 312.59 120.02 312.17 118.78 312.17ZM129.125 326V310.52H131.525V313.37H131.675C131.955 312.63 132.455 311.97 133.175 311.39C133.895 310.81 134.885 310.52 136.145 310.52H137.075V312.92H135.665C134.365 312.92 133.345 313.17 132.605 313.67C131.885 314.15 131.525 314.76 131.525 315.5V326H129.125ZM144.49 326.36C143.05 326.36 141.84 326.09 140.86 325.55C139.9 324.99 139.07 324.25 138.37 323.33L140.08 321.95C140.68 322.71 141.35 323.3 142.09 323.72C142.83 324.12 143.69 324.32 144.67 324.32C145.69 324.32 146.48 324.1 147.04 323.66C147.62 323.22 147.91 322.6 147.91 321.8C147.91 321.2 147.71 320.69 147.31 320.27C146.93 319.83 146.23 319.53 145.21 319.37L143.98 319.19C143.26 319.09 142.6 318.94 142 318.74C141.4 318.52 140.87 318.24 140.41 317.9C139.97 317.54 139.62 317.1 139.36 316.58C139.12 316.06 139 315.44 139 314.72C139 313.96 139.14 313.3 139.42 312.74C139.7 312.16 140.08 311.68 140.56 311.3C141.06 310.92 141.65 310.64 142.33 310.46C143.01 310.26 143.74 310.16 144.52 310.16C145.78 310.16 146.83 310.38 147.67 310.82C148.53 311.26 149.28 311.87 149.92 312.65L148.33 314.09C147.99 313.61 147.49 313.18 146.83 312.8C146.17 312.4 145.34 312.2 144.34 312.2C143.34 312.2 142.58 312.42 142.06 312.86C141.56 313.28 141.31 313.86 141.31 314.6C141.31 315.36 141.56 315.91 142.06 316.25C142.58 316.59 143.32 316.84 144.28 317L145.48 317.18C147.2 317.44 148.42 317.94 149.14 318.68C149.86 319.4 150.22 320.35 150.22 321.53C150.22 323.03 149.71 324.21 148.69 325.07C147.67 325.93 146.27 326.36 144.49 326.36Z" fill="white"/>
<mask id="path-4-inside-1_1600_60050" fill="white">
<path d="M1160 0H1180V627.5H1160V0Z"/>
</mask>
<path d="M1160 1H1180V-1H1160V1ZM1180 626.5H1160V628.5H1180V626.5Z" fill="white" mask="url(#path-4-inside-1_1600_60050)"/>
<path d="M1170 0V627.5" stroke="white" stroke-width="2"/>
<rect x="1066" y="281" width="207" height="65" rx="10" fill="#353A46"/>
<path d="M1078.79 325V304.06H1087.13C1089.01 304.06 1090.45 304.6 1091.45 305.68C1092.47 306.74 1092.98 308.2 1092.98 310.06C1092.98 311.92 1092.47 313.39 1091.45 314.47C1090.45 315.53 1089.01 316.06 1087.13 316.06H1081.31V325H1078.79ZM1081.31 313.84H1087.13C1088.13 313.84 1088.9 313.58 1089.44 313.06C1090 312.54 1090.28 311.8 1090.28 310.84V309.28C1090.28 308.32 1090 307.58 1089.44 307.06C1088.9 306.54 1088.13 306.28 1087.13 306.28H1081.31V313.84ZM1101.71 325.36C1100.67 325.36 1099.72 325.17 1098.86 324.79C1098 324.41 1097.26 323.87 1096.64 323.17C1096.04 322.45 1095.57 321.6 1095.23 320.62C1094.89 319.62 1094.72 318.5 1094.72 317.26C1094.72 316.04 1094.89 314.93 1095.23 313.93C1095.57 312.93 1096.04 312.08 1096.64 311.38C1097.26 310.66 1098 310.11 1098.86 309.73C1099.72 309.35 1100.67 309.16 1101.71 309.16C1102.75 309.16 1103.69 309.35 1104.53 309.73C1105.39 310.11 1106.13 310.66 1106.75 311.38C1107.37 312.08 1107.85 312.93 1108.19 313.93C1108.53 314.93 1108.7 316.04 1108.7 317.26C1108.7 318.5 1108.53 319.62 1108.19 320.62C1107.85 321.6 1107.37 322.45 1106.75 323.17C1106.13 323.87 1105.39 324.41 1104.53 324.79C1103.69 325.17 1102.75 325.36 1101.71 325.36ZM1101.71 323.23C1103.01 323.23 1104.07 322.83 1104.89 322.03C1105.71 321.23 1106.12 320.01 1106.12 318.37V316.15C1106.12 314.51 1105.71 313.29 1104.89 312.49C1104.07 311.69 1103.01 311.29 1101.71 311.29C1100.41 311.29 1099.35 311.69 1098.53 312.49C1097.71 313.29 1097.3 314.51 1097.3 316.15V318.37C1097.3 320.01 1097.71 321.23 1098.53 322.03C1099.35 322.83 1100.41 323.23 1101.71 323.23ZM1114.89 325C1114.05 325 1113.41 324.77 1112.97 324.31C1112.55 323.83 1112.34 323.23 1112.34 322.51V302.8H1114.74V322.9H1117.02V325H1114.89ZM1121.42 305.89C1120.9 305.89 1120.52 305.77 1120.28 305.53C1120.06 305.27 1119.95 304.94 1119.95 304.54V304.15C1119.95 303.75 1120.06 303.43 1120.28 303.19C1120.52 302.93 1120.9 302.8 1121.42 302.8C1121.94 302.8 1122.31 302.93 1122.53 303.19C1122.77 303.43 1122.89 303.75 1122.89 304.15V304.54C1122.89 304.94 1122.77 305.27 1122.53 305.53C1122.31 305.77 1121.94 305.89 1121.42 305.89ZM1120.22 309.52H1122.62V325H1120.22V309.52ZM1130.84 325C1130 325 1129.36 324.77 1128.92 324.31C1128.5 323.83 1128.29 323.21 1128.29 322.45V311.62H1125.74V309.52H1127.18C1127.7 309.52 1128.05 309.42 1128.23 309.22C1128.43 309 1128.53 308.63 1128.53 308.11V305.23H1130.69V309.52H1134.08V311.62H1130.69V322.9H1133.84V325H1130.84ZM1138.84 305.89C1138.32 305.89 1137.94 305.77 1137.7 305.53C1137.48 305.27 1137.37 304.94 1137.37 304.54V304.15C1137.37 303.75 1137.48 303.43 1137.7 303.19C1137.94 302.93 1138.32 302.8 1138.84 302.8C1139.36 302.8 1139.73 302.93 1139.95 303.19C1140.19 303.43 1140.31 303.75 1140.31 304.15V304.54C1140.31 304.94 1140.19 305.27 1139.95 305.53C1139.73 305.77 1139.36 305.89 1138.84 305.89ZM1137.64 309.52H1140.04V325H1137.64V309.52ZM1150.6 325.36C1149.52 325.36 1148.55 325.17 1147.69 324.79C1146.83 324.41 1146.1 323.87 1145.5 323.17C1144.92 322.47 1144.47 321.62 1144.15 320.62C1143.85 319.62 1143.7 318.5 1143.7 317.26C1143.7 316.02 1143.85 314.9 1144.15 313.9C1144.47 312.9 1144.92 312.05 1145.5 311.35C1146.1 310.65 1146.83 310.11 1147.69 309.73C1148.55 309.35 1149.52 309.16 1150.6 309.16C1152.14 309.16 1153.37 309.5 1154.29 310.18C1155.23 310.84 1155.93 311.71 1156.39 312.79L1154.38 313.81C1154.1 313.01 1153.64 312.39 1153 311.95C1152.36 311.51 1151.56 311.29 1150.6 311.29C1149.88 311.29 1149.25 311.41 1148.71 311.65C1148.17 311.87 1147.72 312.19 1147.36 312.61C1147 313.01 1146.73 313.5 1146.55 314.08C1146.37 314.64 1146.28 315.26 1146.28 315.94V318.58C1146.28 319.94 1146.64 321.06 1147.36 321.94C1148.1 322.8 1149.18 323.23 1150.6 323.23C1152.54 323.23 1153.94 322.33 1154.8 320.53L1156.54 321.7C1156.04 322.82 1155.29 323.71 1154.29 324.37C1153.31 325.03 1152.08 325.36 1150.6 325.36ZM1170.87 325C1169.97 325 1169.32 324.76 1168.92 324.28C1168.54 323.8 1168.3 323.2 1168.2 322.48H1168.05C1167.71 323.44 1167.15 324.16 1166.37 324.64C1165.59 325.12 1164.66 325.36 1163.58 325.36C1161.94 325.36 1160.66 324.94 1159.74 324.1C1158.84 323.26 1158.39 322.12 1158.39 320.68C1158.39 319.22 1158.92 318.1 1159.98 317.32C1161.06 316.54 1162.73 316.15 1164.99 316.15H1168.05V314.62C1168.05 313.52 1167.75 312.68 1167.15 312.1C1166.55 311.52 1165.63 311.23 1164.39 311.23C1163.45 311.23 1162.66 311.44 1162.02 311.86C1161.4 312.28 1160.88 312.84 1160.46 313.54L1159.02 312.19C1159.44 311.35 1160.11 310.64 1161.03 310.06C1161.95 309.46 1163.11 309.16 1164.51 309.16C1166.39 309.16 1167.85 309.62 1168.89 310.54C1169.93 311.46 1170.45 312.74 1170.45 314.38V322.9H1172.22V325H1170.87ZM1163.97 323.32C1164.57 323.32 1165.12 323.25 1165.62 323.11C1166.12 322.97 1166.55 322.77 1166.91 322.51C1167.27 322.25 1167.55 321.95 1167.75 321.61C1167.95 321.27 1168.05 320.9 1168.05 320.5V317.95H1164.87C1163.49 317.95 1162.48 318.15 1161.84 318.55C1161.22 318.95 1160.91 319.53 1160.91 320.29V320.92C1160.91 321.68 1161.18 322.27 1161.72 322.69C1162.28 323.11 1163.03 323.32 1163.97 323.32ZM1177.9 325C1177.06 325 1176.42 324.77 1175.98 324.31C1175.56 323.83 1175.35 323.23 1175.35 322.51V302.8H1177.75V322.9H1180.03V325H1177.9ZM1203.81 321.94H1203.72C1203.46 322.92 1202.82 323.74 1201.8 324.4C1200.8 325.04 1199.5 325.36 1197.9 325.36C1196.62 325.36 1195.44 325.13 1194.36 324.67C1193.3 324.19 1192.39 323.5 1191.63 322.6C1190.87 321.68 1190.27 320.55 1189.83 319.21C1189.41 317.85 1189.2 316.29 1189.2 314.53C1189.2 312.79 1189.41 311.25 1189.83 309.91C1190.25 308.55 1190.85 307.42 1191.63 306.52C1192.41 305.6 1193.35 304.9 1194.45 304.42C1195.55 303.94 1196.77 303.7 1198.11 303.7C1199.99 303.7 1201.56 304.12 1202.82 304.96C1204.08 305.8 1205.05 306.91 1205.73 308.29L1203.66 309.55C1203.18 308.43 1202.46 307.55 1201.5 306.91C1200.56 306.27 1199.43 305.95 1198.11 305.95C1197.19 305.95 1196.35 306.12 1195.59 306.46C1194.83 306.78 1194.17 307.24 1193.61 307.84C1193.07 308.44 1192.65 309.16 1192.35 310C1192.05 310.84 1191.9 311.78 1191.9 312.82V316.21C1191.9 317.25 1192.05 318.2 1192.35 319.06C1192.65 319.9 1193.07 320.62 1193.61 321.22C1194.17 321.82 1194.85 322.29 1195.65 322.63C1196.45 322.95 1197.35 323.11 1198.35 323.11C1199.07 323.11 1199.75 323.02 1200.39 322.84C1201.05 322.64 1201.62 322.35 1202.1 321.97C1202.6 321.59 1202.99 321.12 1203.27 320.56C1203.55 319.98 1203.69 319.3 1203.69 318.52V316.45H1199.07V314.23H1206.15V325H1203.81V321.94ZM1216.42 325.36C1215.38 325.36 1214.43 325.17 1213.57 324.79C1212.71 324.41 1211.97 323.87 1211.35 323.17C1210.75 322.45 1210.28 321.6 1209.94 320.62C1209.6 319.62 1209.43 318.5 1209.43 317.26C1209.43 316.04 1209.6 314.93 1209.94 313.93C1210.28 312.93 1210.75 312.08 1211.35 311.38C1211.97 310.66 1212.71 310.11 1213.57 309.73C1214.43 309.35 1215.38 309.16 1216.42 309.16C1217.46 309.16 1218.4 309.35 1219.24 309.73C1220.1 310.11 1220.84 310.66 1221.46 311.38C1222.08 312.08 1222.56 312.93 1222.9 313.93C1223.24 314.93 1223.41 316.04 1223.41 317.26C1223.41 318.5 1223.24 319.62 1222.9 320.62C1222.56 321.6 1222.08 322.45 1221.46 323.17C1220.84 323.87 1220.1 324.41 1219.24 324.79C1218.4 325.17 1217.46 325.36 1216.42 325.36ZM1216.42 323.23C1217.72 323.23 1218.78 322.83 1219.6 322.03C1220.42 321.23 1220.83 320.01 1220.83 318.37V316.15C1220.83 314.51 1220.42 313.29 1219.6 312.49C1218.78 311.69 1217.72 311.29 1216.42 311.29C1215.12 311.29 1214.06 311.69 1213.24 312.49C1212.42 313.29 1212.01 314.51 1212.01 316.15V318.37C1212.01 320.01 1212.42 321.23 1213.24 322.03C1214.06 322.83 1215.12 323.23 1216.42 323.23ZM1238.31 325C1237.41 325 1236.76 324.76 1236.36 324.28C1235.98 323.8 1235.74 323.2 1235.64 322.48H1235.49C1235.15 323.44 1234.59 324.16 1233.81 324.64C1233.03 325.12 1232.1 325.36 1231.02 325.36C1229.38 325.36 1228.1 324.94 1227.18 324.1C1226.28 323.26 1225.83 322.12 1225.83 320.68C1225.83 319.22 1226.36 318.1 1227.42 317.32C1228.5 316.54 1230.17 316.15 1232.43 316.15H1235.49V314.62C1235.49 313.52 1235.19 312.68 1234.59 312.1C1233.99 311.52 1233.07 311.23 1231.83 311.23C1230.89 311.23 1230.1 311.44 1229.46 311.86C1228.84 312.28 1228.32 312.84 1227.9 313.54L1226.46 312.19C1226.88 311.35 1227.55 310.64 1228.47 310.06C1229.39 309.46 1230.55 309.16 1231.95 309.16C1233.83 309.16 1235.29 309.62 1236.33 310.54C1237.37 311.46 1237.89 312.74 1237.89 314.38V322.9H1239.66V325H1238.31ZM1231.41 323.32C1232.01 323.32 1232.56 323.25 1233.06 323.11C1233.56 322.97 1233.99 322.77 1234.35 322.51C1234.71 322.25 1234.99 321.95 1235.19 321.61C1235.39 321.27 1235.49 320.9 1235.49 320.5V317.95H1232.31C1230.93 317.95 1229.92 318.15 1229.28 318.55C1228.66 318.95 1228.35 319.53 1228.35 320.29V320.92C1228.35 321.68 1228.62 322.27 1229.16 322.69C1229.72 323.11 1230.47 323.32 1231.41 323.32ZM1245.33 325C1244.49 325 1243.85 324.77 1243.41 324.31C1242.99 323.83 1242.78 323.23 1242.78 322.51V302.8H1245.18V322.9H1247.46V325H1245.33ZM1255.31 325.36C1253.87 325.36 1252.66 325.09 1251.68 324.55C1250.72 323.99 1249.89 323.25 1249.19 322.33L1250.9 320.95C1251.5 321.71 1252.17 322.3 1252.91 322.72C1253.65 323.12 1254.51 323.32 1255.49 323.32C1256.51 323.32 1257.3 323.1 1257.86 322.66C1258.44 322.22 1258.73 321.6 1258.73 320.8C1258.73 320.2 1258.53 319.69 1258.13 319.27C1257.75 318.83 1257.05 318.53 1256.03 318.37L1254.8 318.19C1254.08 318.09 1253.42 317.94 1252.82 317.74C1252.22 317.52 1251.69 317.24 1251.23 316.9C1250.79 316.54 1250.44 316.1 1250.18 315.58C1249.94 315.06 1249.82 314.44 1249.82 313.72C1249.82 312.96 1249.96 312.3 1250.24 311.74C1250.52 311.16 1250.9 310.68 1251.38 310.3C1251.88 309.92 1252.47 309.64 1253.15 309.46C1253.83 309.26 1254.56 309.16 1255.34 309.16C1256.6 309.16 1257.65 309.38 1258.49 309.82C1259.35 310.26 1260.1 310.87 1260.74 311.65L1259.15 313.09C1258.81 312.61 1258.31 312.18 1257.65 311.8C1256.99 311.4 1256.16 311.2 1255.16 311.2C1254.16 311.2 1253.4 311.42 1252.88 311.86C1252.38 312.28 1252.13 312.86 1252.13 313.6C1252.13 314.36 1252.38 314.91 1252.88 315.25C1253.4 315.59 1254.14 315.84 1255.1 316L1256.3 316.18C1258.02 316.44 1259.24 316.94 1259.96 317.68C1260.68 318.4 1261.04 319.35 1261.04 320.53C1261.04 322.03 1260.53 323.21 1259.51 324.07C1258.49 324.93 1257.09 325.36 1255.31 325.36Z" fill="white"/>
<mask id="path-9-inside-2_1600_60050" fill="white">
<path d="M616 26H636V602H616V26Z"/>
</mask>
<path d="M616 27H636V25H616V27ZM636 601H616V603H636V601Z" fill="white" mask="url(#path-9-inside-2_1600_60050)"/>
<path d="M626 26V602" stroke="white" stroke-width="2"/>
<rect x="540" y="282" width="171" height="65" rx="10" fill="white"/>
<path d="M559.84 307.28V326H557.32V307.28H550.66V305.06H566.5V307.28H559.84ZM573.275 326.36C572.215 326.36 571.255 326.17 570.395 325.79C569.555 325.41 568.825 324.87 568.205 324.17C567.605 323.45 567.135 322.6 566.795 321.62C566.475 320.62 566.315 319.5 566.315 318.26C566.315 317.04 566.475 315.93 566.795 314.93C567.135 313.93 567.605 313.08 568.205 312.38C568.825 311.66 569.555 311.11 570.395 310.73C571.255 310.35 572.215 310.16 573.275 310.16C574.315 310.16 575.245 310.35 576.065 310.73C576.885 311.11 577.585 311.64 578.165 312.32C578.745 312.98 579.185 313.77 579.485 314.69C579.805 315.61 579.965 316.62 579.965 317.72V318.86H568.835V319.58C568.835 320.24 568.935 320.86 569.135 321.44C569.355 322 569.655 322.49 570.035 322.91C570.435 323.33 570.915 323.66 571.475 323.9C572.055 324.14 572.705 324.26 573.425 324.26C574.405 324.26 575.255 324.03 575.975 323.57C576.715 323.11 577.285 322.45 577.685 321.59L579.395 322.82C578.895 323.88 578.115 324.74 577.055 325.4C575.995 326.04 574.735 326.36 573.275 326.36ZM573.275 312.17C572.615 312.17 572.015 312.29 571.475 312.53C570.935 312.75 570.465 313.07 570.065 313.49C569.685 313.91 569.385 314.41 569.165 314.99C568.945 315.55 568.835 316.17 568.835 316.85V317.06H577.385V316.73C577.385 315.35 577.005 314.25 576.245 313.43C575.505 312.59 574.515 312.17 573.275 312.17ZM589.38 326.36C588.3 326.36 587.33 326.17 586.47 325.79C585.61 325.41 584.88 324.87 584.28 324.17C583.7 323.47 583.25 322.62 582.93 321.62C582.63 320.62 582.48 319.5 582.48 318.26C582.48 317.02 582.63 315.9 582.93 314.9C583.25 313.9 583.7 313.05 584.28 312.35C584.88 311.65 585.61 311.11 586.47 310.73C587.33 310.35 588.3 310.16 589.38 310.16C590.92 310.16 592.15 310.5 593.07 311.18C594.01 311.84 594.71 312.71 595.17 313.79L593.16 314.81C592.88 314.01 592.42 313.39 591.78 312.95C591.14 312.51 590.34 312.29 589.38 312.29C588.66 312.29 588.03 312.41 587.49 312.65C586.95 312.87 586.5 313.19 586.14 313.61C585.78 314.01 585.51 314.5 585.33 315.08C585.15 315.64 585.06 316.26 585.06 316.94V319.58C585.06 320.94 585.42 322.06 586.14 322.94C586.88 323.8 587.96 324.23 589.38 324.23C591.32 324.23 592.72 323.33 593.58 321.53L595.32 322.7C594.82 323.82 594.07 324.71 593.07 325.37C592.09 326.03 590.86 326.36 589.38 326.36ZM598.408 303.8H600.808V313.04H600.928C601.308 312.16 601.838 311.46 602.518 310.94C603.218 310.42 604.148 310.16 605.308 310.16C606.908 310.16 608.168 310.68 609.088 311.72C610.028 312.74 610.498 314.19 610.498 316.07V326H608.098V316.49C608.098 313.71 606.928 312.32 604.588 312.32C604.108 312.32 603.638 312.38 603.178 312.5C602.738 312.62 602.338 312.8 601.978 313.04C601.618 313.28 601.328 313.59 601.108 313.97C600.908 314.33 600.808 314.76 600.808 315.26V326H598.408V303.8ZM615.159 326V310.52H617.559V313.04H617.679C618.059 312.16 618.589 311.46 619.269 310.94C619.969 310.42 620.899 310.16 622.059 310.16C623.659 310.16 624.919 310.68 625.839 311.72C626.779 312.74 627.249 314.19 627.249 316.07V326H624.849V316.49C624.849 313.71 623.679 312.32 621.339 312.32C620.859 312.32 620.389 312.38 619.929 312.5C619.489 312.62 619.089 312.8 618.729 313.04C618.369 313.28 618.079 313.59 617.859 313.97C617.659 314.33 617.559 314.76 617.559 315.26V326H615.159ZM637.759 326.36C636.719 326.36 635.769 326.17 634.909 325.79C634.049 325.41 633.309 324.87 632.689 324.17C632.089 323.45 631.619 322.6 631.279 321.62C630.939 320.62 630.769 319.5 630.769 318.26C630.769 317.04 630.939 315.93 631.279 314.93C631.619 313.93 632.089 313.08 632.689 312.38C633.309 311.66 634.049 311.11 634.909 310.73C635.769 310.35 636.719 310.16 637.759 310.16C638.799 310.16 639.739 310.35 640.579 310.73C641.439 311.11 642.179 311.66 642.799 312.38C643.419 313.08 643.899 313.93 644.239 314.93C644.579 315.93 644.749 317.04 644.749 318.26C644.749 319.5 644.579 320.62 644.239 321.62C643.899 322.6 643.419 323.45 642.799 324.17C642.179 324.87 641.439 325.41 640.579 325.79C639.739 326.17 638.799 326.36 637.759 326.36ZM637.759 324.23C639.059 324.23 640.119 323.83 640.939 323.03C641.759 322.23 642.169 321.01 642.169 319.37V317.15C642.169 315.51 641.759 314.29 640.939 313.49C640.119 312.69 639.059 312.29 637.759 312.29C636.459 312.29 635.399 312.69 634.579 313.49C633.759 314.29 633.349 315.51 633.349 317.15V319.37C633.349 321.01 633.759 322.23 634.579 323.03C635.399 323.83 636.459 324.23 637.759 324.23ZM650.946 326C650.106 326 649.466 325.77 649.026 325.31C648.606 324.83 648.396 324.23 648.396 323.51V303.8H650.796V323.9H653.076V326H650.946ZM662.12 326.36C661.08 326.36 660.13 326.17 659.27 325.79C658.41 325.41 657.67 324.87 657.05 324.17C656.45 323.45 655.98 322.6 655.64 321.62C655.3 320.62 655.13 319.5 655.13 318.26C655.13 317.04 655.3 315.93 655.64 314.93C655.98 313.93 656.45 313.08 657.05 312.38C657.67 311.66 658.41 311.11 659.27 310.73C660.13 310.35 661.08 310.16 662.12 310.16C663.16 310.16 664.1 310.35 664.94 310.73C665.8 311.11 666.54 311.66 667.16 312.38C667.78 313.08 668.26 313.93 668.6 314.93C668.94 315.93 669.11 317.04 669.11 318.26C669.11 319.5 668.94 320.62 668.6 321.62C668.26 322.6 667.78 323.45 667.16 324.17C666.54 324.87 665.8 325.41 664.94 325.79C664.1 326.17 663.16 326.36 662.12 326.36ZM662.12 324.23C663.42 324.23 664.48 323.83 665.3 323.03C666.12 322.23 666.53 321.01 666.53 319.37V317.15C666.53 315.51 666.12 314.29 665.3 313.49C664.48 312.69 663.42 312.29 662.12 312.29C660.82 312.29 659.76 312.69 658.94 313.49C658.12 314.29 657.71 315.51 657.71 317.15V319.37C657.71 321.01 658.12 322.23 658.94 323.03C659.76 323.83 660.82 324.23 662.12 324.23ZM685.807 327.71C685.807 329.31 685.177 330.48 683.917 331.22C682.677 331.98 680.807 332.36 678.307 332.36C675.887 332.36 674.147 332.03 673.087 331.37C672.027 330.71 671.497 329.77 671.497 328.55C671.497 327.71 671.717 327.05 672.157 326.57C672.597 326.11 673.197 325.77 673.957 325.55V325.22C673.037 324.78 672.577 324.06 672.577 323.06C672.577 322.28 672.827 321.69 673.327 321.29C673.827 320.87 674.467 320.56 675.247 320.36V320.24C674.327 319.8 673.607 319.17 673.087 318.35C672.587 317.53 672.337 316.58 672.337 315.5C672.337 314.72 672.477 314 672.757 313.34C673.037 312.68 673.427 312.12 673.927 311.66C674.447 311.18 675.057 310.81 675.757 310.55C676.477 310.29 677.277 310.16 678.157 310.16C679.257 310.16 680.237 310.36 681.097 310.76V310.49C681.097 309.89 681.237 309.4 681.517 309.02C681.797 308.62 682.257 308.42 682.897 308.42H685.207V310.52H682.267V311.51C682.827 311.99 683.257 312.57 683.557 313.25C683.877 313.91 684.037 314.66 684.037 315.5C684.037 316.28 683.897 317 683.617 317.66C683.337 318.32 682.937 318.89 682.417 319.37C681.917 319.83 681.307 320.19 680.587 320.45C679.867 320.71 679.067 320.84 678.187 320.84C677.687 320.84 677.187 320.79 676.687 320.69C676.167 320.83 675.697 321.04 675.277 321.32C674.857 321.58 674.647 321.95 674.647 322.43C674.647 322.89 674.867 323.2 675.307 323.36C675.747 323.52 676.317 323.6 677.017 323.6H680.317C682.237 323.6 683.627 323.97 684.487 324.71C685.367 325.43 685.807 326.43 685.807 327.71ZM683.557 327.89C683.557 327.27 683.317 326.77 682.837 326.39C682.377 326.03 681.547 325.85 680.347 325.85H675.187C674.227 326.29 673.747 326.99 673.747 327.95C673.747 328.63 673.997 329.21 674.497 329.69C675.017 330.17 675.887 330.41 677.107 330.41H679.327C680.667 330.41 681.707 330.2 682.447 329.78C683.187 329.36 683.557 328.73 683.557 327.89ZM678.187 318.92C679.207 318.92 680.017 318.68 680.617 318.2C681.217 317.7 681.517 316.94 681.517 315.92V315.08C681.517 314.06 681.217 313.31 680.617 312.83C680.017 312.33 679.207 312.08 678.187 312.08C677.167 312.08 676.357 312.33 675.757 312.83C675.157 313.31 674.857 314.06 674.857 315.08V315.92C674.857 316.94 675.157 317.7 675.757 318.2C676.357 318.68 677.167 318.92 678.187 318.92ZM697.994 310.52H700.364L693.434 329.6C693.254 330.06 693.074 330.44 692.894 330.74C692.714 331.06 692.494 331.31 692.234 331.49C691.974 331.67 691.644 331.8 691.244 331.88C690.864 331.96 690.394 332 689.834 332H688.604V329.9H691.034L692.204 326.6L686.414 310.52H688.814L692.534 321.05L693.254 323.57H693.404L694.244 321.05L697.994 310.52Z" fill="#1F2229"/>
<defs>
<linearGradient id="paint0_linear_1600_60050" x1="157" y1="310.75" x2="1170" y2="310.75" gradientUnits="userSpaceOnUse">
<stop stop-color="#B3C6F1"/>
<stop offset="1" stop-color="#678DE3"/>
</linearGradient>
</defs>
</svg>
