<svg width="442" height="534" viewBox="0 0 442 534" fill="none" xmlns="http://www.w3.org/2000/svg">
<mask id="path-1-inside-1_2044_18565" fill="white">
<path fill-rule="evenodd" clip-rule="evenodd" d="M182.882 402.429C194.604 386.077 201.498 366.074 201.498 344.473C201.498 289.218 156.391 244.426 100.749 244.426C45.107 244.426 0 289.218 0 344.473C0 366.069 6.89101 386.068 18.6087 402.418L88.2464 526.323C93.7278 536.076 107.769 536.076 113.25 526.323L182.882 402.429Z"/>
</mask>
<path d="M182.882 402.429L182.069 401.846L182.037 401.891L182.01 401.939L182.882 402.429ZM18.6087 402.418L19.4805 401.928L19.4535 401.88L19.4215 401.835L18.6087 402.418ZM88.2464 526.323L87.3746 526.813L87.3746 526.813L88.2464 526.323ZM113.25 526.323L114.122 526.813L114.122 526.813L113.25 526.323ZM200.498 344.473C200.498 365.858 193.674 385.658 182.069 401.846L183.694 403.012C195.534 386.496 202.498 366.291 202.498 344.473H200.498ZM100.749 245.426C155.846 245.426 200.498 289.777 200.498 344.473H202.498C202.498 288.659 156.937 243.426 100.749 243.426V245.426ZM1 344.473C1 289.777 45.6526 245.426 100.749 245.426V243.426C44.5613 243.426 -1 288.659 -1 344.473H1ZM19.4215 401.835C7.82122 385.649 1 365.853 1 344.473H-1C-1 366.285 5.9608 386.486 17.7959 403L19.4215 401.835ZM89.1182 525.833L19.4805 401.928L17.7369 402.908L87.3746 526.813L89.1182 525.833ZM112.378 525.833C107.279 534.906 94.2174 534.906 89.1182 525.833L87.3746 526.813C93.2383 537.246 108.258 537.246 114.122 526.813L112.378 525.833ZM182.01 401.939L112.378 525.833L114.122 526.813L183.753 402.919L182.01 401.939Z" fill="white" fill-opacity="0.2" mask="url(#path-1-inside-1_2044_18565)"/>
<mask id="path-3-inside-2_2044_18565" fill="white">
<path fill-rule="evenodd" clip-rule="evenodd" d="M222.882 361.805C234.604 345.453 241.498 325.45 241.498 303.849C241.498 248.594 196.391 203.802 140.749 203.802C85.107 203.802 40 248.594 40 303.849C40 325.445 46.891 345.444 58.6087 361.794L128.246 485.699C133.728 495.452 147.769 495.452 153.25 485.699L222.882 361.805Z"/>
</mask>
<path d="M222.882 361.805L222.069 361.223L222.037 361.267L222.01 361.315L222.882 361.805ZM58.6087 361.794L59.4804 361.304L59.4535 361.256L59.4215 361.211L58.6087 361.794ZM128.246 485.699L127.375 486.189L127.375 486.189L128.246 485.699ZM153.25 485.699L154.122 486.189L154.122 486.189L153.25 485.699ZM240.498 303.849C240.498 325.234 233.674 345.034 222.069 361.223L223.694 362.388C235.534 345.872 242.498 325.667 242.498 303.849H240.498ZM140.749 204.802C195.846 204.802 240.498 249.153 240.498 303.849H242.498C242.498 248.035 196.937 202.802 140.749 202.802V204.802ZM41 303.849C41 249.153 85.6526 204.802 140.749 204.802V202.802C84.5613 202.802 39 248.035 39 303.849H41ZM59.4215 361.211C47.8212 345.025 41 325.229 41 303.849H39C39 325.662 45.9608 345.862 57.7959 362.376L59.4215 361.211ZM129.118 485.209L59.4804 361.304L57.7369 362.284L127.375 486.189L129.118 485.209ZM152.378 485.209C147.279 494.282 134.217 494.282 129.118 485.209L127.375 486.189C133.238 496.622 148.258 496.622 154.122 486.189L152.378 485.209ZM222.01 361.315L152.378 485.209L154.122 486.189L223.753 362.295L222.01 361.315Z" fill="white" fill-opacity="0.2" mask="url(#path-3-inside-2_2044_18565)"/>
<mask id="path-5-inside-3_2044_18565" fill="white">
<path fill-rule="evenodd" clip-rule="evenodd" d="M262.882 321.181C274.604 304.829 281.498 284.826 281.498 263.225C281.498 207.97 236.391 163.178 180.749 163.178C125.107 163.178 80 207.97 80 263.225C80 284.821 86.891 304.82 98.6086 321.17L168.246 445.075C173.728 454.828 187.769 454.828 193.25 445.075L262.882 321.181Z"/>
</mask>
<path d="M262.882 321.181L262.069 320.599L262.037 320.643L262.01 320.691L262.882 321.181ZM98.6086 321.17L99.4804 320.68L99.4535 320.632L99.4215 320.587L98.6086 321.17ZM168.246 445.075L167.375 445.565L167.375 445.565L168.246 445.075ZM193.25 445.075L194.122 445.565L194.122 445.565L193.25 445.075ZM280.498 263.225C280.498 284.61 273.674 304.41 262.069 320.599L263.694 321.764C275.534 305.248 282.498 285.043 282.498 263.225H280.498ZM180.749 164.178C235.846 164.178 280.498 208.529 280.498 263.225H282.498C282.498 207.412 236.937 162.178 180.749 162.178V164.178ZM81 263.225C81 208.529 125.653 164.178 180.749 164.178V162.178C124.561 162.178 79 207.412 79 263.225H81ZM99.4215 320.587C87.8212 304.401 81 284.605 81 263.225H79C79 285.038 85.9608 305.238 97.7958 321.752L99.4215 320.587ZM169.118 444.585L99.4804 320.68L97.7369 321.66L167.375 445.565L169.118 444.585ZM192.378 444.585C187.279 453.658 174.217 453.658 169.118 444.585L167.375 445.565C173.238 455.998 188.258 455.998 194.122 445.565L192.378 444.585ZM262.01 320.691L192.378 444.585L194.122 445.565L263.753 321.671L262.01 320.691Z" fill="white" fill-opacity="0.2" mask="url(#path-5-inside-3_2044_18565)"/>
<mask id="path-7-inside-4_2044_18565" fill="white">
<path fill-rule="evenodd" clip-rule="evenodd" d="M302.882 280.557C314.604 264.205 321.498 244.203 321.498 222.601C321.498 167.347 276.391 122.554 220.749 122.554C165.107 122.554 120 167.347 120 222.601C120 244.198 126.891 264.196 138.609 280.546L208.246 404.451C213.728 414.204 227.769 414.204 233.25 404.451L302.882 280.557Z"/>
</mask>
<path d="M302.882 280.557L302.069 279.975L302.037 280.02L302.01 280.067L302.882 280.557ZM138.609 280.546L139.48 280.056L139.453 280.008L139.421 279.963L138.609 280.546ZM208.246 404.451L207.375 404.941L207.375 404.941L208.246 404.451ZM233.25 404.451L234.122 404.941L234.122 404.941L233.25 404.451ZM320.498 222.601C320.498 243.986 313.674 263.786 302.069 279.975L303.694 281.14C315.534 264.624 322.498 244.419 322.498 222.601H320.498ZM220.749 123.554C275.846 123.554 320.498 167.906 320.498 222.601H322.498C322.498 166.788 276.937 121.554 220.749 121.554V123.554ZM121 222.601C121 167.906 165.653 123.554 220.749 123.554V121.554C164.561 121.554 119 166.788 119 222.601H121ZM139.421 279.963C127.821 263.777 121 243.981 121 222.601H119C119 244.414 125.961 264.615 137.796 281.128L139.421 279.963ZM209.118 403.961L139.48 280.056L137.737 281.036L207.375 404.941L209.118 403.961ZM232.378 403.961C227.279 413.034 214.217 413.034 209.118 403.961L207.375 404.941C213.238 415.374 228.258 415.374 234.122 404.941L232.378 403.961ZM302.01 280.067L232.378 403.961L234.122 404.941L303.753 281.047L302.01 280.067Z" fill="white" fill-opacity="0.2" mask="url(#path-7-inside-4_2044_18565)"/>
<mask id="path-9-inside-5_2044_18565" fill="white">
<path fill-rule="evenodd" clip-rule="evenodd" d="M342.882 239.933C354.604 223.581 361.498 203.579 361.498 181.977C361.498 126.723 316.391 81.9303 260.749 81.9303C205.107 81.9303 160 126.723 160 181.977C160 203.574 166.891 223.572 178.609 239.922L248.246 363.827C253.728 373.58 267.769 373.58 273.25 363.827L342.882 239.933Z"/>
</mask>
<path d="M342.882 239.933L342.069 239.351L342.037 239.395L342.01 239.443L342.882 239.933ZM178.609 239.922L179.48 239.432L179.453 239.384L179.421 239.339L178.609 239.922ZM248.246 363.827L247.375 364.317L247.375 364.317L248.246 363.827ZM273.25 363.827L274.122 364.317L274.122 364.317L273.25 363.827ZM360.498 181.977C360.498 203.362 353.674 223.162 342.069 239.351L343.694 240.516C355.534 224 362.498 203.795 362.498 181.977H360.498ZM260.749 82.9303C315.846 82.9303 360.498 127.282 360.498 181.977H362.498C362.498 126.164 316.937 80.9303 260.749 80.9303V82.9303ZM161 181.977C161 127.282 205.653 82.9303 260.749 82.9303V80.9303C204.561 80.9303 159 126.164 159 181.977H161ZM179.421 239.339C167.821 223.153 161 203.357 161 181.977H159C159 203.79 165.961 223.991 177.796 240.504L179.421 239.339ZM249.118 363.338L179.48 239.432L177.737 240.412L247.375 364.317L249.118 363.338ZM272.378 363.338C267.279 372.41 254.217 372.41 249.118 363.338L247.375 364.317C253.238 374.75 268.258 374.75 274.122 364.317L272.378 363.338ZM342.01 239.443L272.378 363.338L274.122 364.317L343.753 240.423L342.01 239.443Z" fill="white" fill-opacity="0.2" mask="url(#path-9-inside-5_2044_18565)"/>
<mask id="path-11-inside-6_2044_18565" fill="white">
<path fill-rule="evenodd" clip-rule="evenodd" d="M382.882 199.31C394.604 182.957 401.498 162.955 401.498 141.353C401.498 86.099 356.391 41.3065 300.749 41.3065C245.107 41.3065 200 86.099 200 141.353C200 162.95 206.891 182.948 218.608 199.298L288.246 323.204C293.728 332.957 307.769 332.957 313.25 323.204L382.882 199.31Z"/>
</mask>
<path d="M382.882 199.31L382.069 198.727L382.037 198.772L382.01 198.82L382.882 199.31ZM218.608 199.298L219.48 198.808L219.453 198.76L219.421 198.716L218.608 199.298ZM288.246 323.204L287.375 323.694L287.375 323.694L288.246 323.204ZM313.25 323.204L314.122 323.694L314.122 323.694L313.25 323.204ZM400.498 141.353C400.498 162.738 393.674 182.538 382.069 198.727L383.695 199.892C395.534 183.376 402.498 163.171 402.498 141.353H400.498ZM300.749 42.3065C355.846 42.3065 400.498 86.6578 400.498 141.353H402.498C402.498 85.5401 356.937 40.3065 300.749 40.3065V42.3065ZM201 141.353C201 86.6578 245.653 42.3065 300.749 42.3065V40.3065C244.561 40.3065 199 85.5401 199 141.353H201ZM219.421 198.716C207.821 182.529 201 162.733 201 141.353H199C199 163.166 205.961 183.367 217.796 199.881L219.421 198.716ZM289.118 322.714L219.48 198.808L217.737 199.788L287.375 323.694L289.118 322.714ZM312.378 322.714C307.279 331.787 294.217 331.787 289.118 322.714L287.375 323.694C293.238 334.127 308.258 334.127 314.122 323.694L312.378 322.714ZM382.01 198.82L312.378 322.714L314.122 323.694L383.754 199.799L382.01 198.82Z" fill="white" fill-opacity="0.2" mask="url(#path-11-inside-6_2044_18565)"/>
<mask id="path-13-inside-7_2044_18565" fill="white">
<path fill-rule="evenodd" clip-rule="evenodd" d="M422.882 158.686C434.604 142.333 441.498 122.331 441.498 100.729C441.498 45.4751 396.391 0.682617 340.749 0.682617C285.107 0.682617 240 45.4751 240 100.729C240 122.326 246.891 142.324 258.608 158.674L328.246 282.58C333.728 292.333 347.769 292.333 353.25 282.58L422.882 158.686Z"/>
</mask>
<path d="M422.882 158.686L422.069 158.103L422.037 158.148L422.01 158.196L422.882 158.686ZM258.608 158.674L259.48 158.184L259.453 158.136L259.421 158.092L258.608 158.674ZM328.246 282.58L327.375 283.07L327.375 283.07L328.246 282.58ZM353.25 282.58L354.122 283.07L354.122 283.07L353.25 282.58ZM440.498 100.729C440.498 122.115 433.674 141.915 422.069 158.103L423.695 159.268C435.534 142.752 442.498 122.547 442.498 100.729H440.498ZM340.749 1.68262C395.846 1.68262 440.498 46.0339 440.498 100.729H442.498C442.498 44.9162 396.937 -0.317383 340.749 -0.317383V1.68262ZM241 100.729C241 46.0339 285.653 1.68262 340.749 1.68262V-0.317383C284.561 -0.317383 239 44.9162 239 100.729H241ZM259.421 158.092C247.821 141.905 241 122.11 241 100.729H239C239 122.542 245.961 142.743 257.796 159.257L259.421 158.092ZM329.118 282.09L259.48 158.184L257.737 159.164L327.375 283.07L329.118 282.09ZM352.378 282.09C347.279 291.163 334.217 291.163 329.118 282.09L327.375 283.07C333.238 293.503 348.258 293.503 354.122 283.07L352.378 282.09ZM422.01 158.196L352.378 282.09L354.122 283.07L423.754 159.176L422.01 158.196Z" fill="white" fill-opacity="0.2" mask="url(#path-13-inside-7_2044_18565)"/>
</svg>
