<svg width="400" height="318" fill="none" xmlns="http://www.w3.org/2000/svg"><g clip-path="url(#clip0_581_2)"><path d="M.363 317.995L0 16.518 37.398 0h130.095l.631 72.035 33.335.085-8.914 75.364 117.877-.118-.265 77.93 10.025 4.376c3.229 1.835 6.052 4.344 8.102 7.441a23.685 23.685 0 0 1 3.932 13.064v15.902L400 318H.363v-.005z" fill="#150F3A"/><path d="M7.552 240.464H38.55v13.673H25.854v12.957h11.303v12.998H25.854v28.699H7.552v-68.327zm79.923 40.008c0 6.866-.167 11.726-.5 14.582-.333 2.856-1.377 5.465-3.13 7.828-1.754 2.364-4.123 4.178-7.108 5.444-2.985 1.267-6.463 1.899-10.433 1.899-3.768 0-7.152-.598-10.151-1.793-3-1.196-5.413-2.989-7.239-5.381-1.825-2.391-2.912-4.994-3.26-7.808-.348-2.813-.522-7.737-.522-14.771v-11.69c0-6.864.166-11.725.5-14.581.333-2.856 1.376-5.465 3.13-7.829 1.753-2.363 4.123-4.178 7.108-5.444 2.985-1.266 6.463-1.899 10.434-1.899 3.767 0 7.151.598 10.15 1.794 3 1.196 5.413 2.989 7.239 5.38 1.826 2.392 2.913 4.995 3.26 7.808.348 2.814.522 7.738.522 14.771v11.69zM69.173 258.02c0-3.179-.181-5.212-.543-6.098-.363-.887-1.109-1.33-2.24-1.33-.956 0-1.688.359-2.195 1.077-.507.717-.76 2.834-.76 6.351v31.906c0 3.967.166 6.415.5 7.343.332.929 1.108 1.393 2.325 1.393 1.246 0 2.043-.534 2.391-1.604.348-1.069.522-3.615.522-7.639V258.02zm27.798-17.556h12.956c8.636 0 14.483.323 17.541.97 3.057.648 5.55 2.3 7.477 4.959 1.927 2.659 2.891 6.9 2.891 12.725 0 5.317-.681 8.891-2.043 10.719-1.363 1.829-4.043 2.927-8.043 3.292 3.623.872 6.058 2.04 7.304 3.503 1.246 1.463 2.021 2.806 2.326 4.03.304 1.224.456 4.594.456 10.108v18.021h-16.998v-22.706c0-3.657-.297-5.922-.891-6.794-.594-.872-2.152-1.309-4.673-1.309v30.809H96.971v-68.327zm18.303 11.69v15.193c2.057 0 3.499-.274 4.325-.823.826-.549 1.239-2.328 1.239-5.339v-3.756c0-2.166-.398-3.587-1.195-4.262-.798-.676-2.254-1.013-4.369-1.013zm32.32-11.69h30.518v13.673h-12.216v12.957h11.434v12.998h-11.434v15.025h13.433v13.674h-31.735v-68.327zm83.183 0l-9.314 68.327h-27.801l-10.575-68.327h19.302c2.243 18.821 3.845 34.746 4.804 47.774.946-13.167 1.949-24.857 3.011-35.068l1.271-12.706h19.302zm5.758 0h30.518v13.673h-12.216v12.957h11.434v12.998h-11.434v15.025h13.433v13.674h-31.735v-68.327zm39.667 0h12.955c8.636 0 14.483.323 17.541.97 3.057.648 5.55 2.3 7.478 4.959 1.927 2.659 2.891 6.9 2.891 12.725 0 5.317-.682 8.891-2.044 10.719-1.362 1.829-4.043 2.927-8.042 3.292 3.622.872 6.057 2.04 7.303 3.503 1.246 1.463 2.022 2.806 2.326 4.03.304 1.224.456 4.594.456 10.108v18.021h-16.998v-22.706c0-3.657-.297-5.922-.891-6.794-.594-.872-2.152-1.309-4.673-1.309v30.809h-18.303v-68.327h.001zm18.302 11.69v15.193c2.057 0 3.499-.274 4.325-.823.826-.549 1.239-2.328 1.239-5.339v-3.756c0-2.166-.398-3.587-1.195-4.262-.798-.676-2.254-1.013-4.369-1.013z" fill="#18A47F"/><path d="M48.935 196.751H31.166v-11.875c0-3.453-.19-5.608-.57-6.465-.38-.855-1.217-1.284-2.511-1.284-1.463 0-2.392.521-2.786 1.561-.394 1.041-.59 3.292-.59 6.753v31.737c0 3.32.196 5.486.59 6.499.394 1.013 1.28 1.519 2.66 1.519 1.322 0 2.187-.507 2.595-1.522.408-1.016.612-3.399.612-7.15v-8.589h17.77v2.663c0 7.072-.5 12.088-1.5 15.046-.998 2.959-3.207 5.551-6.626 7.777-3.418 2.226-7.633 3.339-12.64 3.339-5.207 0-9.497-.943-12.874-2.828-3.376-1.884-5.613-4.494-6.71-7.828-1.098-3.334-1.647-8.349-1.647-15.046v-19.962c0-4.923.169-8.616.507-11.078.337-2.462 1.343-4.832 3.018-7.112 1.673-2.278 3.995-4.072 6.964-5.38 2.968-1.309 6.38-1.963 10.235-1.963 5.234 0 9.552 1.012 12.957 3.035 3.405 2.023 5.642 4.545 6.711 7.565 1.07 3.021 1.604 7.72 1.604 14.098v6.49zm49.823-29.753v68.327H80.99v-28.698h-5.318v28.698h-17.77v-68.327h17.77v24.436h5.318v-24.436h17.77zm40.443 0l10.161 68.327h-18.16l-.953-12.281h-6.356l-1.069 12.281h-18.37l9.063-68.327h25.684zm-9.418 43.934c-.899-7.739-1.801-17.305-2.706-28.699-1.81 13.084-2.947 22.65-3.41 28.699h6.116zm64.865-43.934v68.327h-15.575l-9.243-31.062v31.062h-14.857v-68.327h14.857l9.961 30.766v-30.766h14.857zm50.498 25.153h-17.769v-6.204c0-3.91-.169-6.358-.507-7.343-.337-.985-1.139-1.477-2.405-1.477-1.098 0-1.844.422-2.237 1.266-.395.844-.591 3.011-.591 6.499v32.792c0 3.067.196 5.086.591 6.056.393.971 1.182 1.456 2.363 1.456 1.294 0 2.174-.548 2.638-1.646.464-1.097.697-3.235.697-6.415v-8.103h-3.588v-10.381h20.808v36.674H233.98l-1.644-4.895c-1.211 2.11-2.739 3.692-4.583 4.747-1.844 1.056-4.019 1.583-6.525 1.583-2.986 0-5.781-.725-8.385-2.173-2.605-1.449-4.583-3.243-5.935-5.381-1.352-2.138-2.196-4.382-2.534-6.732-.338-2.349-.507-5.873-.507-10.572v-20.299c0-6.527.352-11.269 1.056-14.223.703-2.954 2.722-5.662 6.056-8.124 3.335-2.462 7.646-3.693 12.937-3.693 5.205 0 9.524 1.07 12.958 3.208 3.432 2.138 5.669 4.678 6.71 7.617 1.041 2.941 1.562 7.21 1.562 12.809v2.954zm9.473-25.153h29.629v13.674h-11.86v12.956h11.101v12.999h-11.101v15.024h13.042v13.674h-30.811v-68.327z" fill="#fff"/><path d="M47.12 93.531v68.327H31.547l-9.243-31.061v31.061H7.446V93.531h14.857l9.96 30.766V93.531h14.858zm50.33 40.009c0 6.865-.162 11.726-.486 14.581-.323 2.856-1.336 5.465-3.038 7.829-1.703 2.363-4.004 4.178-6.901 5.444-2.899 1.266-6.275 1.899-10.13 1.899-3.658 0-6.943-.598-9.855-1.794-2.913-1.195-5.255-2.989-7.028-5.381-1.773-2.391-2.828-4.993-3.166-7.807-.337-2.813-.506-7.737-.506-14.771v-11.691c0-6.864.162-11.725.485-14.581.324-2.855 1.337-5.465 3.04-7.829 1.701-2.363 4.002-4.178 6.9-5.444 2.898-1.266 6.275-1.899 10.13-1.899 3.657 0 6.943.598 9.855 1.794 2.913 1.196 5.255 2.99 7.028 5.38 1.772 2.392 2.828 4.995 3.165 7.808.338 2.814.507 7.738.507 14.771v11.691zm-17.77-22.452c0-3.179-.176-5.213-.527-6.099-.352-.886-1.076-1.329-2.174-1.329-.928 0-1.639.359-2.131 1.076-.492.718-.739 2.835-.739 6.352v31.905c0 3.968.162 6.415.486 7.344.323.928 1.076 1.393 2.258 1.393 1.21 0 1.984-.535 2.321-1.604.338-1.069.507-3.615.507-7.639v-31.399zm93.888-17.557l-7.912 68.327h-22.185c-2.031-10.497-3.824-22.441-5.378-35.831-.709 5.742-2.361 17.685-4.956 35.831h-22.059l-7.954-68.327h17.263l1.877 23.84 1.816 23.048c.655-11.927 2.293-27.556 4.913-46.888h18.452c.245 1.998.891 9.51 1.938 22.537l1.963 25.997c1.01-16.54 2.663-32.718 4.959-48.534h17.263z" fill="#F9EC33"/><path d="M42.25 20.065l10.162 68.327h-18.16l-.953-12.28h-6.356l-1.069 12.28H7.504l9.064-68.327H42.25zM32.834 64c-.9-7.74-1.801-17.305-2.706-28.698-1.81 13.083-2.947 22.65-3.41 28.698h6.116zm66.68-14.18h-17.77V37.943c0-3.453-.19-5.608-.569-6.464-.38-.856-1.217-1.285-2.511-1.285-1.464 0-2.392.52-2.786 1.562-.394 1.04-.591 3.291-.591 6.752v31.737c0 3.32.197 5.486.59 6.5.395 1.012 1.281 1.518 2.66 1.518 1.322 0 2.188-.507 2.596-1.522.407-1.016.612-3.399.612-7.15v-8.589h17.769v2.663c0 7.072-.5 12.088-1.498 15.046-1 2.959-3.208 5.551-6.627 7.778-3.419 2.225-7.633 3.338-12.641 3.338-5.206 0-9.497-.943-12.873-2.828-3.377-1.884-5.614-4.494-6.711-7.828-1.098-3.334-1.646-8.349-1.646-15.046V44.163c0-4.923.169-8.616.506-11.078.338-2.462 1.344-4.832 3.018-7.111 1.674-2.28 3.995-4.073 6.964-5.381 2.969-1.309 6.38-1.963 10.235-1.963 5.234 0 9.553 1.012 12.958 3.035 3.404 2.023 5.641 4.545 6.711 7.566 1.07 3.02 1.604 7.719 1.604 14.097v6.49zm44.758-29.754V33.74h-10.552v54.654H115.95V33.738h-10.51V20.065h38.831z" fill="#fff"/></g><defs><clipPath id="clip0_581_2"><path fill="#fff" d="M0 0H400V318H0z"/></clipPath></defs></svg>